<svg width="968" height="445" viewBox="0 0 968 445" fill="none" xmlns="http://www.w3.org/2000/svg">
<path d="M475.097 854.982C474.463 853.657 472.875 853.096 471.549 853.73C470.224 854.364 469.663 855.952 470.297 857.277C474.111 865.249 476.909 882.982 474.261 900.801C471.618 918.587 463.697 935.58 446.987 943.174C435.395 948.441 423.364 948.443 411.504 942.646C399.72 936.887 387.925 925.306 377.028 907.024C378.151 899.236 379.816 889.009 384.391 880.602C386.746 876.274 389.826 872.524 393.921 869.85C397.997 867.189 403.227 865.496 410.057 865.496C420.555 865.497 426.774 869.086 430.547 873.448C434.408 877.91 435.965 883.483 436.501 887.77C437.563 896.27 435.913 901.629 433.413 904.81C430.929 907.971 427.291 909.385 423.48 909.384C419.037 909.384 415.531 907.488 413.763 904.529C412.018 901.608 411.598 897.016 414.674 890.866C415.331 889.552 414.798 887.955 413.484 887.298C412.169 886.641 410.572 887.173 409.915 888.487C406.278 895.759 406.264 902.35 409.196 907.257C412.105 912.126 417.548 914.703 423.48 914.703C428.618 914.704 433.929 912.763 437.597 908.096C441.249 903.448 442.955 896.505 441.78 887.11C441.172 882.246 439.374 875.519 434.571 869.968C429.682 864.316 421.931 860.178 410.057 860.177C402.295 860.176 396.034 862.117 391.012 865.397C386.008 868.664 382.383 873.161 379.717 878.06C375.901 885.072 373.957 893.099 372.753 899.944C362.83 884.024 353.047 872.15 343.121 865.281C337.487 861.382 331.717 859.032 325.787 858.546C319.836 858.058 313.929 859.467 308.078 862.758C288.799 873.6 285.896 893.181 291.59 908.473C297.178 923.481 311.732 935.687 328.121 930.225C339.84 926.32 342.912 915.212 341.364 906.545C340.59 902.214 338.624 898.101 335.632 895.5C332.49 892.769 328.267 891.804 323.853 894.01C322.539 894.667 322.006 896.265 322.663 897.578C323.32 898.892 324.918 899.425 326.232 898.768C328.53 897.619 330.459 898.052 332.141 899.514C333.973 901.107 335.502 903.984 336.126 907.48C337.375 914.471 334.854 922.374 326.438 925.179C313.959 929.338 301.668 920.295 296.576 906.617C291.589 893.223 294.171 876.681 310.686 867.394C315.735 864.555 320.591 863.457 325.353 863.847C330.137 864.239 335.028 866.15 340.093 869.655C350.299 876.718 360.829 889.99 371.968 908.921C383.311 928.199 395.954 940.967 409.167 947.425C422.476 953.93 436.172 953.931 449.189 948.016C468.275 939.343 476.76 920.177 479.523 901.583C479.567 901.287 479.61 900.992 479.651 900.696C479.705 900.311 479.756 899.927 479.804 899.543C479.891 900.223 479.984 900.903 480.085 901.583C482.849 920.177 491.334 939.343 510.42 948.016C523.437 953.931 537.133 953.93 550.442 947.425C563.655 940.967 576.298 928.199 587.641 908.921C598.78 889.99 609.31 876.718 619.516 869.655C624.581 866.15 629.472 864.239 634.256 863.847C639.018 863.457 643.874 864.555 648.923 867.394C665.438 876.681 668.02 893.223 663.033 906.617C657.941 920.295 645.65 929.338 633.171 925.179C624.755 922.374 622.234 914.471 623.483 907.48C624.107 903.984 625.636 901.107 627.468 899.514C629.15 898.052 631.079 897.619 633.377 898.768C634.691 899.425 636.289 898.892 636.946 897.578C637.603 896.265 637.07 894.667 635.756 894.01C631.342 891.804 627.119 892.769 623.977 895.5C620.985 898.101 619.019 902.214 618.245 906.545C616.697 915.212 619.769 926.32 631.488 930.225C647.876 935.687 662.431 923.481 668.019 908.473C673.713 893.181 670.81 873.6 651.531 862.758C645.68 859.467 639.773 858.058 633.821 858.546C627.892 859.032 622.122 861.382 616.488 865.281C606.562 872.15 596.779 884.024 586.856 899.944C585.652 893.099 583.708 885.072 579.892 878.06C577.226 873.161 573.601 868.664 568.597 865.397C563.575 862.117 557.314 860.176 549.552 860.177C537.678 860.178 529.927 864.316 525.038 869.968C520.235 875.519 518.437 882.246 517.829 887.11C516.654 896.505 518.36 903.448 522.012 908.096C525.68 912.763 530.991 914.704 536.129 914.703C542.061 914.703 547.504 912.126 550.413 907.257C553.345 902.35 553.331 895.759 549.694 888.487C549.037 887.173 547.44 886.641 546.125 887.298C544.811 887.955 544.279 889.552 544.935 890.866C548.011 897.016 547.591 901.608 545.846 904.529C544.078 907.488 540.572 909.384 536.129 909.384C532.318 909.385 528.68 907.971 526.196 904.81C523.696 901.629 522.046 896.27 523.108 887.77C523.644 883.483 525.201 877.91 529.062 873.448C532.835 869.086 539.055 865.497 549.552 865.496C556.383 865.496 561.612 867.189 565.688 869.85C569.783 872.524 572.863 876.274 575.218 880.602C579.793 889.009 581.458 899.236 582.581 907.024C571.684 925.306 559.889 936.887 548.105 942.646C536.245 948.443 524.214 948.441 512.622 943.174C495.912 935.58 487.991 918.587 485.348 900.801C482.7 882.982 485.498 865.249 489.312 857.277C489.946 855.952 489.385 854.364 488.059 853.73C486.734 853.096 485.146 853.657 484.512 854.982C482.459 859.273 480.755 865.683 479.804 873.19C478.854 865.683 477.15 859.273 475.097 854.982Z" fill="#212326"/>
<path fill-rule="evenodd" clip-rule="evenodd" d="M700.879 826.63C701.99 826.624 702.987 827.309 703.38 828.348L734.701 911.104C734.974 911.825 734.92 912.629 734.554 913.307C734.188 913.986 733.546 914.472 732.793 914.64C669.422 928.802 576.623 950.344 487.571 1008.21C486.804 1008.71 485.835 1008.78 485.005 1008.4C455.225 994.628 405.832 973.289 356.736 954.054C307.565 934.789 258.944 917.737 230.591 912.422C229.809 912.276 229.133 911.786 228.75 911.089C228.366 910.392 228.316 909.559 228.611 908.82L259.932 830.538C260.334 829.533 261.306 828.872 262.388 828.866L700.879 826.63ZM264.207 834.176L234.742 907.819C263.992 913.848 311.313 930.545 358.677 949.101C407.144 968.09 455.901 989.125 485.905 1002.95C574.046 946.027 665.599 924.239 728.64 910.119L699.058 831.958L264.207 834.176Z" fill="#212326"/>
<path fill-rule="evenodd" clip-rule="evenodd" d="M374.122 22.3668C374.413 22.3515 374.702 22.3384 374.989 22.3275C387.292 8.25813 403.247 0 419.006 0C427.161 0 433.331 1.46449 437.939 3.94825C442.584 6.45223 445.503 9.91945 447.228 13.6452C450.607 20.9426 449.292 28.9551 448.434 32.3873C447.086 37.7823 443.056 41.8007 438.358 43.4784C433.612 45.1737 428.017 44.5174 423.837 40.3383C420.415 36.9177 419.76 32.6528 420.228 29.1088C420.68 25.6882 422.225 22.5359 423.835 20.9225C424.873 19.8828 426.557 19.881 427.597 20.9185C428.637 21.9561 428.639 23.64 427.601 24.6798C426.974 25.3081 425.834 27.3001 425.503 29.8053C425.188 32.1872 425.651 34.6297 427.599 36.577C430.131 39.1078 433.485 39.5706 436.568 38.4692C439.701 37.3503 442.383 34.6562 443.272 31.0981C444.04 28.0268 445.001 21.4978 442.4 15.8795C441.135 13.1474 439 10.5633 435.414 8.63035C431.79 6.6772 426.551 5.31924 419.006 5.31924C406.307 5.31924 393.011 11.4692 382.062 22.5221C393.105 23.6066 401.01 28.337 406.709 34.6931C413.568 42.3431 417.066 52.1639 419.326 60.0726C419.722 61.4575 418.943 62.9057 417.569 63.3394C416.927 63.5424 416.26 63.7561 415.571 63.9769L415.558 63.9811C402.816 68.0661 382.385 74.6165 360.717 61.9364C358.72 70.1551 357.707 79.0837 357.939 88.5914C361.445 87.4912 365.304 86.7192 369.535 86.3164C389.01 84.4623 401.447 90.8438 408.76 99.5695C415.932 108.127 417.967 118.707 417.17 125.08C415.936 134.954 410.24 141.005 403.431 142.707C396.725 144.383 389.374 141.68 385.404 135.065C382.642 130.463 382.922 125.252 384.684 121.179C386.395 117.222 389.819 113.695 394.066 113.165C395.524 112.982 396.854 114.016 397.036 115.474C397.218 116.931 396.184 118.261 394.726 118.443C393.008 118.658 390.839 120.35 389.568 123.29C388.346 126.113 388.254 129.475 389.966 132.328C392.707 136.896 397.66 138.666 402.141 137.547C406.517 136.453 410.888 132.44 411.891 124.42C412.509 119.477 410.881 110.382 404.682 102.986C398.623 95.7569 387.981 89.9035 370.039 91.6117C365.596 92.0347 361.671 92.8914 358.211 94.1049C359.124 106.474 362.133 119.74 367.778 133.633C374.967 151.326 383.546 166.245 392.217 180.191C394.675 184.145 397.149 188.034 399.604 191.892L399.612 191.905L399.618 191.914C405.78 201.598 411.817 211.085 417.149 220.894C431.305 246.935 440.692 275.574 436.109 318.478C439.232 314.725 442.484 310.921 445.784 307.061L445.793 307.05C448.968 303.336 452.189 299.568 455.383 295.742C464.186 285.201 472.877 274.12 480.254 262.157C470.691 246.024 463.433 228.126 461.345 207.775C459.081 185.704 460.76 169.536 464.665 156.886C468.364 144.904 474.012 136.234 479.922 128.817C478.602 127.251 477.264 125.712 475.93 124.178L475.925 124.172C465.526 112.214 455.332 100.491 455.332 77.7915C455.332 67.0239 459.515 57.568 464.434 50.0461C468.139 44.3823 473.33 39.7185 477.104 36.329L477.106 36.3274C478.343 35.2155 479.428 34.2408 480.258 33.4129C480.974 32.6989 481.995 32.477 482.9 32.7468C483.805 32.477 484.826 32.6989 485.542 33.4129C486.335 34.2051 487.382 35.1768 488.599 36.3075C491.159 38.6864 493.565 41.7689 496.368 45.3608C497.472 46.7756 498.637 48.2694 499.898 49.8305C505.928 57.2945 511.395 66.8316 511.395 77.7915C511.395 100.491 501.201 112.214 490.802 124.172L490.797 124.178C489.463 125.712 488.125 127.251 486.805 128.817C492.715 136.234 498.363 144.904 502.062 156.886C505.967 169.536 507.646 185.704 505.382 207.775C503.294 228.126 496.036 246.024 486.473 262.157C493.85 274.12 502.541 285.201 511.344 295.742C514.537 299.566 517.756 303.332 520.931 307.046L520.934 307.05C524.708 311.465 528.42 315.807 531.949 320.084C527.23 276.944 536.637 248.753 550.864 223.177C556.07 213.818 561.954 204.756 567.965 195.498L567.971 195.49C570.569 191.488 573.192 187.449 575.794 183.333C584.46 169.626 593.036 154.866 600.222 137.179C606.399 121.976 609.42 107.525 609.992 94.1767C606.482 92.9251 602.491 92.043 597.961 91.6117C580.019 89.9035 569.377 95.7569 563.318 102.986C557.119 110.382 555.491 119.477 556.109 124.42C557.112 132.44 561.483 136.453 565.859 137.547C570.34 138.666 575.293 136.896 578.034 132.328C579.746 129.475 579.654 126.113 578.432 123.29C577.161 120.35 574.992 118.658 573.274 118.443C571.816 118.261 570.782 116.931 570.964 115.474C571.146 114.016 572.476 112.982 573.934 113.165C578.181 113.695 581.605 117.222 583.316 121.179C585.078 125.252 585.358 130.463 582.596 135.065C578.626 141.68 571.275 144.383 564.569 142.707C557.76 141.005 552.064 134.954 550.83 125.08C550.033 118.707 552.068 108.127 559.24 99.5695C566.553 90.8438 578.99 84.4623 598.465 86.3164C602.708 86.7203 606.576 87.4955 610.09 88.6007C610.025 80.4095 609.031 72.6742 607.283 65.4826C585.615 78.1626 565.184 71.6123 552.442 67.5273L552.426 67.5222C551.738 67.3017 551.073 67.0883 550.431 66.8856C549.057 66.4518 548.278 65.0036 548.674 63.6187C550.934 55.7101 554.432 45.8893 561.291 38.2393C566.99 31.8832 574.895 27.1528 585.938 26.0683C574.989 15.0154 561.693 8.8654 548.994 8.8654C541.449 8.8654 536.21 10.2234 532.586 12.1765C529 14.1094 526.865 16.6936 525.6 19.4257C522.999 25.044 523.961 31.573 524.728 34.6442C525.617 38.2024 528.299 40.8964 531.432 42.0154C534.515 43.1167 537.87 42.654 540.401 40.1232C542.349 38.1758 542.812 35.7333 542.497 33.3515C542.166 30.8463 541.026 28.8543 540.399 28.226C539.361 27.1862 539.363 25.5022 540.403 24.4647C541.443 23.4271 543.127 23.4289 544.165 24.4687C545.775 26.082 547.32 29.2344 547.772 32.6549C548.24 36.1989 547.585 40.4638 544.163 43.8844C539.983 48.0635 534.388 48.7199 529.642 47.0246C524.944 45.3468 520.914 41.3285 519.566 35.9335C518.708 32.5012 517.393 24.4887 520.772 17.1913C522.497 13.4656 525.416 9.99839 530.061 7.49441C534.669 5.01065 540.839 3.54616 548.994 3.54616C564.753 3.54616 580.708 11.8043 593.011 25.8736C593.298 25.8845 593.587 25.8976 593.878 25.9129C605.091 26.5033 613.094 30.2247 619.268 35.8665C622.518 38.8358 625.22 42.3031 627.61 46.0226C637.675 41.4616 648.261 39.4801 658.084 39.4529C673.017 39.4117 686.663 43.9017 694.056 51.2932C699.929 57.1644 704.907 62.7379 709.935 75.286C712.454 81.5729 714.988 89.6142 717.684 100.341C734.607 98.4548 752.511 96.5733 771.49 104.386C786.221 110.451 794.317 123.505 798.381 137.785C830.78 146.123 854.224 160.156 870.955 177.277C889.262 196.012 899.384 218.296 904.503 240.477C912.488 275.079 908.34 309.601 903.988 330.586C929.604 345.808 951.8 369.464 962.019 397.568C971.37 423.284 970.606 452.491 953.635 482.003C964.149 507.202 967.196 535.457 961.795 560.289C959.08 572.772 954.217 584.429 947.07 594.382C947.373 601.162 946.831 607.662 945.555 613.886C941.281 634.745 928.85 652.128 913.208 666.344C910.604 668.71 907.907 670.993 905.138 673.193C903.621 688.017 900.511 701.442 895.807 713.138C888.724 730.749 878.004 744.466 863.724 753.055C859.239 771.287 849.189 785.777 837.114 796.958C828.984 804.485 819.934 810.518 811.039 815.214C810.249 822.568 808.803 829.072 806.863 834.805C850.714 825.544 880.333 825.598 899.236 832.085C909.031 835.446 916.043 840.569 920.585 847.095C925.122 853.612 927.04 861.305 927.04 869.547C927.04 886.447 916.759 897.979 904.49 903.096C892.379 908.146 877.703 907.164 868.806 898.269C853.807 883.274 865.982 861.969 882.31 864.687C883.759 864.928 884.738 866.299 884.497 867.747C884.255 869.196 882.885 870.175 881.436 869.934C870.917 868.183 860.72 882.663 872.568 894.508C879.49 901.428 891.66 902.682 902.441 898.186C913.063 893.757 921.719 883.961 921.719 869.547C921.719 862.133 920.001 855.567 916.218 850.133C912.441 844.707 906.45 840.184 897.508 837.116C879.544 830.951 850.07 830.795 804.568 840.739C802.671 845.062 800.472 848.868 798.067 852.205C788.227 865.857 775.099 871.388 765.77 872.199C764.619 872.299 763.536 871.646 763.088 870.582C745.042 827.734 747.974 800.677 763.87 783.585C766.414 780.85 769.265 778.401 772.373 776.202C772.932 770.457 773.838 764.803 775.161 759.364C779.148 742.977 786.997 728.315 800.703 719.221C801.255 704.508 803.961 692.36 810.336 681.438C817.276 669.548 828.403 659.39 845.146 648.929C846.498 648.085 847.888 647.237 849.317 646.386C848.482 633.814 849.019 622.478 851.786 611.182C856.266 592.895 866.53 574.984 885.687 552.159C867.16 490.549 833.932 451.562 795.467 427.95C762.112 407.474 722.139 398.437 683.975 396.422C645.816 394.408 609.663 399.427 584.095 406.882C582.685 407.293 581.208 406.484 580.796 405.074C580.385 403.663 581.195 402.187 582.605 401.776C607.427 394.538 641.789 389.592 678.337 390.852C670.909 388.329 663.551 385.163 657.02 380.989C649.63 376.266 643.192 370.194 638.891 362.209C637.631 359.87 636.563 357.382 635.708 354.734C627.129 358.782 618.043 361.165 609.128 362.408C590.348 365.028 572.112 362.635 560.354 359.981C558.921 359.658 558.022 358.234 558.345 356.801C558.669 355.368 560.093 354.469 561.526 354.793C572.887 357.357 590.445 359.644 608.393 357.14C617.216 355.909 626.082 353.53 634.345 349.488C633.323 344.391 633.029 338.765 633.594 332.552C635.387 312.84 647.729 300.308 665.855 293.203C668.265 292.259 670.781 291.408 673.394 290.646C674.148 286.077 674.745 281.47 675.343 276.854C675.905 272.516 676.469 268.168 677.165 263.834C678.592 254.942 680.6 246.16 684.464 237.929C680.493 237.007 676.361 235.931 672.061 234.688C639.573 225.296 613.845 227.184 595.528 233.38C577.066 239.624 566.384 250.126 563.418 257.706C563.21 258.237 562.85 258.663 562.408 258.955C561.639 261.448 561.019 263.872 560.55 266.215C555.09 293.524 558.575 309.915 565.697 319.17C572.753 328.338 583.95 331.215 595.733 330.145C607.234 329.099 613.631 323.964 616.806 317.608C620.065 311.084 620.137 302.848 618.027 295.464C615.494 286.602 608.406 282.244 601.499 281.532C594.306 280.79 588.56 283.95 587.369 288.707C586.362 292.725 586.829 295.361 587.698 296.998C588.56 298.623 589.987 299.591 591.586 299.991C593.234 300.403 594.927 300.172 596.116 299.535C597.242 298.932 597.788 298.073 597.788 297.008C597.788 295.539 598.979 294.348 600.448 294.348C601.918 294.348 603.109 295.539 603.109 297.008C603.109 300.396 601.139 302.879 598.629 304.223C596.183 305.534 593.122 305.858 590.296 305.151C587.421 304.433 584.653 302.61 582.998 299.491C581.35 296.385 580.978 292.325 582.208 287.415C584.331 278.938 593.607 275.37 602.045 276.241C610.77 277.14 619.923 282.736 623.143 294.003C625.507 302.276 625.578 311.952 621.566 319.984C617.469 328.185 609.323 334.251 596.215 335.442C583.389 336.608 570.049 333.548 561.48 322.413C552.978 311.366 549.751 293.089 555.333 265.173C560.901 237.325 586.093 199.971 624.637 171.808C624.623 171.379 624.712 170.941 624.917 170.53C631.439 157.491 635.737 138.509 632.79 122.434C631.324 114.444 628.096 107.302 622.601 101.904C620.508 99.8491 618.057 98.0176 615.2 96.4792C614.389 109.861 611.236 124.205 605.151 139.181C597.796 157.286 589.034 172.347 580.291 186.175C577.614 190.411 574.95 194.512 572.333 198.543L572.325 198.555L572.322 198.559L572.32 198.563L572.317 198.568C566.353 207.751 560.628 216.568 555.514 225.762C540.939 251.965 531.584 280.825 538.204 327.15C538.24 327.399 538.24 327.644 538.208 327.881C539.089 329.016 539.951 330.147 540.793 331.273C547.17 339.811 552.516 348.326 555.785 357.014C556.516 357.197 557.166 357.688 557.526 358.417L620.501 485.906C620.952 486.818 620.842 487.907 620.219 488.711C602.677 511.365 568.003 579.797 571.556 670.384C572.959 706.165 579.479 733.991 587.885 755.083C588.096 755.115 588.306 755.173 588.511 755.258C592.729 757.015 600.247 759.133 608.974 760.286C617.698 761.438 627.421 761.599 636.108 759.596C642.905 758.028 649.715 754.33 656.732 749.665C660.227 747.341 663.725 744.812 667.27 742.23L668.326 741.46L668.33 741.457L668.337 741.452L668.35 741.443C671.53 739.124 674.751 736.776 677.988 734.555C692.254 724.767 707.921 716.638 725.005 723.956C742.735 731.551 750.11 745.357 750.11 758.634C750.11 771.687 742.936 784.256 731.75 789.224C728.107 790.842 720.306 792.629 712.698 791.332C708.845 790.674 704.914 789.204 701.611 786.393C698.28 783.558 695.749 779.496 694.516 773.951C693.509 769.422 693.72 765.548 694.923 762.367C696.132 759.169 698.279 756.848 700.817 755.36C705.744 752.47 712.237 752.672 716.484 755.502C717.706 756.317 718.037 757.968 717.222 759.19C716.407 760.412 714.755 760.743 713.533 759.928C711.07 758.287 706.773 758.033 703.509 759.948C701.951 760.862 700.652 762.258 699.9 764.248C699.141 766.255 698.875 769.041 699.71 772.797C700.715 777.318 702.689 780.325 705.06 782.342C707.458 784.383 710.425 785.548 713.593 786.088C720.029 787.186 726.769 785.616 729.59 784.363C738.541 780.388 744.79 769.949 744.79 758.634C744.789 747.545 738.739 735.626 722.909 728.846C708.672 722.747 695.257 729.158 680.999 738.941C677.821 741.121 674.656 743.428 671.459 745.759L671.457 745.761L670.403 746.529C666.861 749.11 663.279 751.7 659.678 754.094C652.503 758.864 645.05 762.993 637.304 764.779C627.784 766.974 617.372 766.761 608.276 765.559C601.5 764.664 595.338 763.204 590.68 761.702C602.96 789.188 618.249 803.752 627.708 808.737H712.078C713.2 808.737 714.201 809.44 714.581 810.495L754.851 922.327C755.342 923.692 754.649 925.199 753.293 925.714L746.208 928.407C746.047 928.991 745.688 929.52 745.162 929.885C746.464 929.469 747.89 930.112 748.425 931.396C751.859 939.636 759.159 952.03 770.013 962.906C772.797 959.408 775.521 956.367 778.228 953.722C791.118 941.128 803.539 937.624 819.608 936.476C856.457 933.845 879.718 952.621 889.127 966.73C889.801 967.742 889.704 969.081 888.89 969.985C881.549 978.14 857.451 992.81 817.439 990.992C798.384 990.126 782.698 981.519 770.664 970.834C761.758 983.052 751.836 1000.45 739.4 1025.31C724.512 1055.08 699.733 1069.19 676.17 1071.5C671.773 1108.27 661.876 1134.27 648.665 1152.04C634.574 1171 616.828 1180.44 598.427 1183.62C580.096 1186.8 561.231 1183.75 544.748 1177.99C528.607 1172.35 514.564 1164.03 505.321 1156.1C513.699 1174.59 515.607 1193.65 513.881 1211.3C511.239 1238.33 500.081 1262.13 490.544 1275.86C490.037 1276.59 489.198 1277.02 488.309 1277C487.421 1276.98 486.599 1276.52 486.119 1275.78C453.174 1224.39 456.382 1180.02 467.458 1151.81C466.065 1153.11 464.667 1154.38 463.264 1155.6C454.034 1163.68 439.742 1172.23 423.265 1177.99C406.782 1183.75 387.917 1186.8 369.586 1183.62C351.184 1180.44 333.438 1171 319.347 1152.04C306.141 1134.28 296.246 1108.29 291.847 1071.54C268.171 1069.34 243.207 1055.24 228.238 1025.31C215.803 1000.45 205.88 983.052 196.975 970.834C184.941 981.519 169.254 990.126 150.199 990.992C110.187 992.81 86.09 978.14 78.7481 969.985C77.9348 969.081 77.8376 967.742 78.512 966.73C87.9207 952.621 111.181 933.845 148.031 936.476C164.099 937.624 176.52 941.128 189.411 953.722C192.117 956.367 194.841 959.408 197.626 962.906C208.48 952.03 215.779 939.636 219.213 931.396C219.778 930.04 221.336 929.399 222.692 929.964C224.048 930.529 224.689 932.086 224.124 933.442C220.396 942.388 212.554 955.636 200.883 967.17C210.224 979.871 220.407 997.759 232.997 1022.93C246.878 1050.69 269.66 1063.77 291.248 1066.13C291.189 1065.55 291.131 1064.97 291.075 1064.39C286.847 1020.72 282.394 994.37 272.799 975.307C263.304 956.444 248.632 944.467 223.061 930.017C222.865 929.906 222.689 929.775 222.534 929.627L212.238 925.714C210.882 925.199 210.189 923.692 210.681 922.327L250.95 810.495C251.33 809.44 252.331 808.737 253.453 808.737H337.824C347.252 803.767 362.476 789.278 374.737 761.958C370.185 763.368 364.341 764.715 357.95 765.559C348.854 766.761 338.442 766.974 328.922 764.779C321.176 762.993 313.724 758.864 306.548 754.094C302.947 751.7 299.366 749.11 295.823 746.529L294.769 745.761L294.764 745.757C291.568 743.427 288.404 741.12 285.228 738.941C270.97 729.158 257.554 722.747 243.317 728.846C227.488 735.626 221.437 747.545 221.437 758.634C221.437 769.949 227.685 780.388 236.636 784.363C239.458 785.616 246.197 787.186 252.633 786.088C255.802 785.548 258.768 784.383 261.167 782.342C263.537 780.325 265.511 777.318 266.517 772.797C267.352 769.041 267.086 766.255 266.327 764.248C265.575 762.258 264.275 760.862 262.717 759.948C259.453 758.033 255.157 758.287 252.694 759.928C251.471 760.743 249.82 760.412 249.005 759.19C248.19 757.968 248.52 756.317 249.743 755.502C253.989 752.672 260.482 752.47 265.41 755.36C267.948 756.848 270.094 759.169 271.304 762.367C272.507 765.548 272.718 769.422 271.71 773.951C270.478 779.496 267.946 783.558 264.615 786.393C261.312 789.204 257.382 790.674 253.528 791.332C245.921 792.629 238.12 790.842 234.476 789.224C223.291 784.256 216.116 771.687 216.116 758.634C216.117 745.357 223.491 731.551 241.222 723.956C258.306 716.638 273.973 724.767 288.238 734.555C291.48 736.78 294.707 739.131 297.892 741.454L297.895 741.456L297.897 741.457L297.9 741.46L298.957 742.23C302.502 744.812 305.999 747.341 309.494 749.665C316.511 754.33 323.321 758.028 330.118 759.596C338.806 761.599 348.529 761.438 357.253 760.286C365.865 759.148 373.301 757.071 377.548 755.328C386.002 734.207 392.566 706.304 393.975 670.384C397.529 579.797 362.854 511.365 345.312 488.711C344.679 487.894 344.577 486.784 345.051 485.865L409.85 360.172C412.934 350.384 418.786 340.843 425.934 331.273C427.172 329.616 428.455 327.95 429.775 326.275C429.78 326.212 429.786 326.148 429.796 326.085C436.416 279.758 427.061 250.27 412.474 223.434C407.235 213.796 401.35 204.547 395.229 194.928L395.226 194.924C392.747 191.027 390.228 187.069 387.698 182.999C378.96 168.945 370.202 153.733 362.849 135.635C357.278 121.923 354.164 108.741 353.056 96.3428C350.089 97.9088 347.554 99.788 345.399 101.904C339.904 107.302 336.676 114.444 335.21 122.434C332.263 138.509 336.561 157.491 343.083 170.53C343.288 170.941 343.377 171.379 343.363 171.808C377.083 196.446 400.584 228.118 409.667 254.306C409.898 254.796 410.108 255.282 410.297 255.764C410.425 256.091 410.484 256.429 410.48 256.76C411.393 259.643 412.123 262.453 412.667 265.173C418.249 293.089 415.022 311.366 406.52 322.413C397.951 333.548 384.611 336.608 371.785 335.442C358.677 334.251 350.531 328.185 346.434 319.984C342.422 311.952 342.493 302.276 344.857 294.003C348.078 282.736 357.23 277.14 365.955 276.241C374.393 275.37 383.669 278.938 385.793 287.415C387.022 292.325 386.65 296.385 385.002 299.491C383.347 302.61 380.58 304.433 377.704 305.151C374.878 305.858 371.817 305.534 369.371 304.223C366.861 302.879 364.891 300.396 364.891 297.008C364.891 295.539 366.082 294.348 367.552 294.348C369.021 294.348 370.212 295.539 370.212 297.008C370.212 298.073 370.758 298.932 371.884 299.535C373.074 300.172 374.766 300.403 376.414 299.991C378.013 299.591 379.44 298.623 380.302 296.998C381.171 295.361 381.638 292.725 380.631 288.707C379.44 283.95 373.694 280.79 366.501 281.532C359.594 282.244 352.506 286.602 349.973 295.464C347.863 302.848 347.935 311.084 351.194 317.608C354.369 323.964 360.766 329.099 372.267 330.145C384.05 331.215 395.247 328.338 402.303 319.17C409.425 309.915 412.91 293.524 407.45 266.215C406.819 263.059 405.912 259.755 404.739 256.336C401.092 248.902 390.608 239.253 373.232 233.376C354.914 227.181 329.187 225.292 296.699 234.685C292.399 235.928 288.267 237.004 284.296 237.926C288.16 246.157 290.168 254.939 291.595 263.831C292.291 268.164 292.854 272.511 293.416 276.848C294.025 281.546 294.633 286.235 295.406 290.883C297.733 291.583 299.982 292.356 302.145 293.203C320.271 300.308 332.613 312.84 334.406 332.552C334.958 338.625 334.69 344.136 333.723 349.141C342.182 353.392 351.297 355.871 360.367 357.137C378.315 359.641 395.873 357.354 407.234 354.789C408.667 354.466 410.091 355.365 410.415 356.798C410.738 358.23 409.839 359.654 408.406 359.978C396.648 362.632 378.412 365.025 359.632 362.405C350.488 361.129 341.166 358.656 332.393 354.416C331.522 357.183 330.419 359.777 329.109 362.209C324.808 370.194 318.371 376.266 310.98 380.989C304.434 385.172 297.058 388.343 289.613 390.869C325.833 389.545 359.843 394.531 384.687 401.775C386.097 402.186 386.907 403.663 386.496 405.073C386.085 406.483 384.608 407.293 383.197 406.881C331.87 391.915 241.123 386.933 174.306 427.949C135.516 451.76 102.053 491.209 83.6203 553.726C101.939 575.807 111.837 593.316 116.214 611.182C118.907 622.175 119.488 633.205 118.747 645.376C120.783 646.567 122.742 647.751 124.628 648.929C141.371 659.389 152.497 669.547 159.437 681.438C165.994 692.67 168.669 705.2 169.113 720.483C181.702 729.639 189.031 743.715 192.839 759.364C194.062 764.393 194.929 769.606 195.495 774.905C199.349 777.426 202.848 780.299 205.903 783.584C221.8 800.677 224.732 827.733 206.686 870.581C206.238 871.645 205.154 872.299 204.004 872.199C194.674 871.388 181.547 865.856 171.706 852.204C169.302 848.868 167.103 845.062 165.206 840.739C119.704 830.795 90.23 830.951 72.2652 837.116C63.3238 840.184 57.3325 844.707 53.5552 850.133C49.7723 855.567 48.0544 862.133 48.0544 869.547C48.0544 883.961 56.7109 893.757 67.3324 898.186C78.1137 902.682 90.2837 901.428 97.2057 894.508C109.053 882.663 98.857 868.183 88.3379 869.934C86.8886 870.175 85.5181 869.196 85.2767 867.747C85.0353 866.299 86.0145 864.928 87.4638 864.687C103.791 861.969 115.967 883.274 100.968 898.269C92.0705 907.164 77.3942 908.146 65.2841 903.096C53.014 897.979 42.7339 886.447 42.7339 869.547C42.7339 861.305 44.6514 853.612 49.1881 847.095C53.7303 840.569 60.7427 835.446 70.5378 832.085C89.4402 825.598 119.06 825.544 162.91 834.805C161.057 829.327 159.654 823.145 158.844 816.189C149.349 811.363 139.591 805.017 130.886 796.958C118.524 785.511 108.284 770.596 103.965 751.748C90.722 743.105 80.7002 729.881 73.9664 713.138C69.4233 701.841 66.3669 688.932 64.7966 674.708C61.3465 672.045 57.9983 669.258 54.7921 666.344C39.1503 652.128 26.719 634.745 22.4448 613.886C21.0217 606.941 20.5116 599.653 21.069 592.016C14.8094 582.601 10.4809 571.796 7.97822 560.289C2.70434 536.04 5.48629 508.528 15.4095 483.785C-2.57083 453.668 -3.55844 423.802 5.98071 397.568C16.1999 369.464 38.3961 345.808 64.0122 330.586C59.6598 309.601 55.512 275.079 63.4975 240.477C68.6165 218.296 78.7383 196.012 97.0454 177.277C113.606 160.329 136.746 146.408 168.637 138.04C172.307 122.314 180.48 107.439 196.51 100.84C215.489 93.0272 233.393 94.9086 250.316 96.795C253.012 86.068 255.546 78.0268 258.065 71.7398C263.093 59.1917 268.071 53.6182 273.944 47.747C281.337 40.3556 294.983 35.8655 309.916 35.9068C319.739 35.9339 330.325 37.9155 340.39 42.4764C342.78 38.7569 345.482 35.2897 348.732 32.3203C354.906 26.6785 362.909 22.9571 374.122 22.3668ZM363.363 39.5482C365.468 35.4474 367.837 31.6052 370.423 28.051C362.508 29.1383 356.822 32.1338 352.321 36.2466C349.613 38.7212 347.297 41.6321 345.179 44.8686C348.846 46.8769 352.412 49.2554 355.812 52.0362C356.407 52.5233 357.002 52.9926 357.596 53.4446C359.192 48.5362 361.132 43.8941 363.363 39.5482ZM328.797 346.413C329.417 342.377 329.553 337.935 329.107 333.034C327.544 315.842 316.99 304.735 300.203 298.156C298.999 297.684 297.763 297.236 296.498 296.811C298.942 308.742 302.97 320.333 311.471 331.098C316.544 337.522 322.429 342.539 328.797 346.413ZM290.733 295.09C293.249 308.503 297.535 322.035 307.295 334.395C313.221 341.899 320.15 347.604 327.599 351.885C326.786 354.703 325.713 357.295 324.424 359.687C320.656 366.684 314.948 372.141 308.115 376.507C294.415 385.261 276.62 389.391 262.018 392.779L261.802 392.829C261.435 392.914 261.104 393.071 260.82 393.282C230.411 397.327 199.739 406.377 172.696 422.701C139.343 408.703 110.133 407.576 85.8078 415.078L85.8084 415.013C86.0485 387.174 79.5681 366.149 74.8902 350.972C74.0373 348.204 73.2441 345.631 72.5627 343.246C71.8205 340.649 70.939 337.275 70.0327 333.255C74.7461 330.623 79.5682 328.285 84.4442 326.268C104.66 317.905 130.51 309.553 157.827 303.038C156.324 309.581 156.279 316.878 157.568 323.559C159.167 331.844 162.939 339.739 169.202 343.914C169.653 344.214 170.43 345.012 171.67 346.545C172.372 347.414 173.119 348.382 173.953 349.465L173.956 349.47C174.547 350.235 175.181 351.058 175.874 351.943C179.142 356.113 183.38 361.199 188.723 365.6C194.076 370.011 200.612 373.795 208.486 375.272C216.389 376.756 225.43 375.876 235.701 371.286C236.374 370.986 236.892 370.419 237.131 369.722C237.371 369.025 237.31 368.26 236.964 367.61C232.96 360.079 222.838 347.085 207.05 343.578C202.378 342.54 197.596 341.856 193.154 341.221C192.694 341.156 192.237 341.09 191.785 341.025C186.896 340.322 182.543 339.646 178.984 338.592C175.386 337.526 173.056 336.198 171.792 334.513C170.634 332.97 170.03 330.654 171.021 326.689C173.123 318.283 177.881 310.849 183.231 305.232C188.637 299.557 194.37 296.024 198.169 295.075C198.214 295.064 198.258 295.051 198.302 295.038C210.667 293.126 222.921 291.756 234.694 291.088C255.765 289.892 275.105 290.961 290.733 295.09ZM289.753 289.358C289.104 285.206 288.576 281.083 288.056 277.029L288.056 277.026L288.055 277.024C287.516 272.819 286.986 268.688 286.342 264.673C284.877 255.548 282.843 246.952 278.953 239.093C251.348 244.744 231.926 242.66 217.876 237.604C203.301 232.36 194.726 223.956 189.16 218.501C188.291 217.649 187.494 216.868 186.759 216.183C186.232 215.691 185.927 215.006 185.915 214.284C185.902 213.563 186.183 212.868 186.693 212.358C189.287 209.765 193.164 207.525 197.652 205.738C202.18 203.935 207.505 202.523 213.149 201.679C224.388 199.999 237.23 200.526 247.79 205.052C263.867 211.942 273.964 220.79 280.479 230.984C280.917 231.668 281.337 232.358 281.742 233.053C286.025 232.089 290.515 230.935 295.221 229.575C328.63 219.916 355.476 221.755 374.937 228.337C384.194 231.469 391.841 235.701 397.706 240.313C385.831 217.857 364.599 192.988 336.109 173.169C311.284 155.9 281.077 142.56 246.985 138.03C243.249 156.58 230.04 170.339 215.026 178.603C199.899 186.93 182.38 189.986 169.935 186.374C168.977 186.096 168.255 185.305 168.065 184.325C166.003 173.675 165.05 158.528 167.481 143.859C137.707 152.072 116.226 165.261 100.851 180.994C83.3634 198.891 73.6301 220.231 68.6818 241.673C61.1299 274.396 64.762 307.194 68.8784 327.818C73.3191 325.403 77.8438 323.241 82.4099 321.352C103.751 312.524 131.271 303.711 160.225 297.01C160.526 296.805 160.869 296.66 161.238 296.59L166.258 295.65C187.664 290.948 209.667 287.464 230.386 286.03C221.847 276.611 206.677 264.378 190.338 255.113C181.096 249.873 171.604 245.655 162.854 243.426C154.058 241.185 146.33 241.035 140.38 243.514C134.63 245.91 132.064 250.332 131.463 254.793C130.837 259.438 132.369 263.865 134.525 266.02C141.436 272.925 153.866 266.145 150.256 255.323C149.791 253.929 150.544 252.423 151.938 251.958C153.331 251.493 154.838 252.246 155.303 253.64C160.642 269.643 141.752 280.762 130.764 269.782C127.213 266.233 125.388 260.036 126.19 254.084C127.016 247.948 130.66 241.802 138.333 238.604C139.409 238.156 140.517 237.781 141.654 237.474C137.629 234.192 133.412 229.629 130.009 224.428C125.032 216.821 121.465 207.334 123.325 198.036C125.382 187.749 130.621 181.163 137.475 174.311C138.108 173.678 139.015 173.406 139.891 173.586C140.767 173.766 141.494 174.373 141.826 175.204C144.05 180.761 146.959 188.175 148.132 195.153C149.28 201.979 148.946 209.503 143.255 214.054C141.02 215.843 140.124 217.836 139.944 219.866C139.755 221.995 140.343 224.373 141.481 226.775C142.611 229.159 144.203 231.397 145.782 233.169C147.235 234.798 148.511 235.851 149.246 236.299C149.289 236.323 149.331 236.346 149.373 236.37L149.418 236.394C154.116 236.272 159.103 236.981 164.168 238.271C173.525 240.655 183.469 245.103 192.963 250.487C211.448 260.968 228.701 275.268 237.056 285.637C256.355 284.71 274.482 285.684 289.753 289.358ZM643.576 359.687C642.344 357.401 641.31 354.932 640.511 352.258C648.206 347.937 655.367 342.121 661.465 334.398C671.276 321.974 675.556 308.364 678.067 294.882C693.553 290.926 712.592 289.913 733.306 291.088C745.079 291.756 757.333 293.126 769.698 295.038L769.729 295.047L769.755 295.055L769.777 295.061L769.814 295.071L769.831 295.075C773.63 296.024 779.363 299.557 784.769 305.232C790.119 310.849 794.877 318.283 796.979 326.689C797.97 330.654 797.366 332.97 796.208 334.513C794.944 336.198 792.614 337.526 789.016 338.592C785.457 339.646 781.104 340.322 776.215 341.025L774.847 341.221L774.843 341.222C770.402 341.857 765.62 342.54 760.95 343.578C745.162 347.085 735.04 360.079 731.036 367.61C730.69 368.26 730.629 369.025 730.869 369.722C731.108 370.419 731.626 370.986 732.299 371.286C742.57 375.876 751.611 376.756 759.514 375.272C767.388 373.795 773.923 370.011 779.277 365.6C784.62 361.199 788.857 356.113 792.126 351.943C792.813 351.067 793.441 350.251 794.027 349.491L794.032 349.484L794.034 349.482L794.042 349.471L794.044 349.469L794.047 349.465C794.881 348.383 795.628 347.414 796.33 346.545C797.57 345.012 798.347 344.214 798.798 343.914C805.061 339.739 808.833 331.844 810.432 323.559C811.721 316.878 811.676 309.581 810.173 303.038C837.49 309.553 863.341 317.905 883.556 326.268C888.432 328.285 893.254 330.623 897.967 333.255C897.061 337.275 896.18 340.649 895.437 343.246C894.756 345.63 893.963 348.203 893.11 350.97L893.11 350.972C888.458 366.065 882.024 386.94 882.188 414.548C858.222 407.639 829.622 409.043 797.077 422.702C769.666 406.162 738.163 397.105 706.966 393.139C706.734 393 706.476 392.894 706.198 392.829L705.982 392.779C691.38 389.391 673.585 385.261 659.885 376.507C653.052 372.141 647.344 366.684 643.576 359.687ZM667.797 298.156C669.259 297.583 670.767 297.045 672.317 296.542C669.879 308.569 665.855 320.254 657.289 331.102C652.033 337.758 645.903 342.904 639.269 346.833C638.593 342.685 638.432 338.105 638.893 333.034C640.456 315.842 651.01 304.735 667.797 298.156ZM801.743 295.65C780.337 290.948 758.333 287.464 737.614 286.03C746.153 276.611 761.323 264.378 777.662 255.113C786.904 249.873 796.396 245.655 805.146 243.426C813.942 241.185 821.67 241.035 827.62 243.514C833.37 245.91 835.936 250.332 836.537 254.793C837.163 259.438 835.631 263.865 833.475 266.02C826.564 272.925 814.134 266.145 817.744 255.323C818.209 253.929 817.456 252.423 816.062 251.958C814.669 251.493 813.162 252.246 812.697 253.64C807.358 269.643 826.248 280.762 837.236 269.782C840.787 266.233 842.612 260.036 841.81 254.084C840.984 247.948 837.34 241.802 829.667 238.604C828.591 238.156 827.483 237.781 826.346 237.474C830.371 234.192 834.588 229.629 837.991 224.428C842.968 216.821 846.536 207.334 844.675 198.036C842.618 187.749 837.379 181.163 830.525 174.311C829.892 173.678 828.985 173.406 828.109 173.586C827.233 173.766 826.506 174.373 826.174 175.204C823.95 180.761 821.041 188.175 819.868 195.153C818.72 201.979 819.055 209.503 824.745 214.054C826.98 215.843 827.876 217.836 828.056 219.866C828.245 221.995 827.657 224.373 826.519 226.775C825.389 229.159 823.797 231.397 822.218 233.169C820.765 234.798 819.489 235.851 818.754 236.299L818.671 236.345L818.593 236.388L818.583 236.394C813.884 236.272 808.897 236.981 803.832 238.271C794.475 240.655 784.531 245.103 775.037 250.487C756.552 260.968 739.299 275.268 730.944 285.637C711.977 284.726 694.141 285.651 679.037 289.171C679.672 285.082 680.193 281.023 680.704 277.03C681.244 272.824 681.773 268.692 682.418 264.677C683.883 255.552 685.917 246.955 689.807 239.097C717.412 244.748 736.834 242.664 750.884 237.608C765.459 232.364 774.034 223.959 779.6 218.505C780.47 217.652 781.266 216.871 782.001 216.186C782.528 215.694 782.833 215.009 782.845 214.288C782.858 213.567 782.577 212.871 782.067 212.361C779.474 209.768 775.596 207.529 771.108 205.741C766.58 203.939 761.255 202.526 755.611 201.683C744.372 200.003 731.53 200.53 720.97 205.055C704.893 211.945 694.796 220.794 688.281 230.987C687.844 231.672 687.423 232.362 687.018 233.057C682.735 232.092 678.245 230.939 673.539 229.578C640.13 219.92 613.284 221.759 593.823 228.341C583.853 231.713 575.753 236.362 569.733 241.387C581.492 218.653 602.946 193.305 631.891 173.169C656.557 156.01 686.536 142.731 720.359 138.119C720.532 139.029 720.706 139.952 720.881 140.885C724.425 159.785 737.774 173.782 752.974 182.149C768.101 190.476 785.62 193.532 798.065 189.92C799.023 189.642 799.745 188.851 799.935 187.872C802.173 176.313 803.105 159.459 799.822 143.669C829.958 151.867 851.655 165.138 867.149 180.994C884.637 198.891 894.37 220.231 899.318 241.673C906.87 274.396 903.238 307.194 899.122 327.818C894.681 325.403 890.156 323.241 885.59 321.352C864.249 312.524 836.729 303.711 807.774 297.01C807.474 296.805 807.131 296.66 806.762 296.59L801.743 295.65ZM173.151 142.381C170.465 156.273 171.131 171.025 172.987 181.672C183.623 184.109 198.816 181.454 212.46 173.943C226.422 166.258 238.225 153.781 241.682 137.401C222.296 135.372 201.706 136.208 180.179 140.773C177.789 141.28 175.447 141.816 173.151 142.381ZM242.686 132.157C222.648 130.013 201.35 130.845 179.075 135.57C177.527 135.898 175.997 136.238 174.487 136.591C178.209 122.838 185.58 111.092 198.536 105.759C215.891 98.6143 232.28 100.149 249.043 102.006C247.041 110.438 244.941 120.368 242.686 132.157ZM247.98 132.796C281.159 137.256 310.73 149.834 335.359 166.225C330.193 153.058 327.258 136.3 329.977 121.475C331.588 112.69 335.211 104.455 341.671 98.1101C344.733 95.1026 348.386 92.5647 352.682 90.6009C352.219 79.2368 353.45 68.5932 356.002 58.8776C354.817 58.0319 353.63 57.1249 352.442 56.1531C349.245 53.5375 345.883 51.3049 342.423 49.4252C341.408 51.224 340.422 53.0954 339.439 55.0245C338.645 56.5816 337.855 58.1767 337.053 59.7953L337.046 59.8098L337.045 59.8128C330.385 73.2574 322.924 88.321 306.098 96.7317C288.342 105.608 271.125 104.412 254.372 102.595C252.374 110.959 250.262 120.895 247.98 132.796ZM18.9536 489.392C10.5382 512.267 8.40299 537.207 13.1773 559.158C15.0688 567.855 18.0374 576.063 22.1183 583.488C24.3555 570.504 29.6347 556.571 38.6441 541.663C42.3744 535.49 45.7981 529.476 48.9366 523.617C45.7822 520.384 42.4851 517.05 39.0399 513.606C31.0073 505.575 24.3536 497.482 18.9536 489.392ZM26.1738 598.863C26.2261 603.696 26.7406 608.346 27.6571 612.819C31.6327 632.22 43.2513 648.666 58.371 662.408C60.2416 664.108 62.1631 665.764 64.1273 667.378C63.1559 654.036 63.4153 639.648 64.9048 624.435C61.1614 622.745 57.2839 621.016 53.2677 619.241C42.2819 614.388 33.2839 607.379 26.1738 598.863ZM70.7018 679.08C72.3444 690.912 75.0868 701.664 78.9029 711.153C84.511 725.098 92.4204 736.297 102.594 744.233C101.364 735.261 101.441 725.475 103.174 714.832C104.046 709.48 104.901 704.387 105.725 699.524C94.1008 693.895 81.9988 687.108 70.7018 679.08ZM110.449 755.48C115.048 770.889 123.94 783.276 134.502 793.055C141.913 799.917 150.146 805.489 158.289 809.892C157.822 802.224 158.035 793.706 159.084 784.263C159.759 778.195 160.395 772.453 160.97 767.008C152.622 765.084 143.712 763.692 134.565 762.594C125.709 761.532 117.667 759.115 110.449 755.48ZM164.578 818.939C166.572 832.122 170.858 841.928 176.023 849.095C184.238 860.492 194.822 865.426 202.554 866.662C219.418 825.655 215.55 801.768 202.007 787.206C200.207 785.272 198.221 783.482 196.065 781.824C196.939 796.694 195.671 811.891 193.437 825.292C193.319 826.003 192.917 826.635 192.324 827.044C191.731 827.453 190.998 827.604 190.291 827.463C183.24 826.053 174.19 823.282 164.578 818.939ZM190.453 778.024C191.734 792.637 190.739 807.923 188.631 821.659C181.616 820.014 172.915 817.094 163.835 812.724C163.112 804.613 163.203 795.367 164.372 784.85C165.015 779.067 165.626 773.558 166.184 768.302C168.69 768.97 171.135 769.694 173.51 770.481C179.735 772.543 185.431 775.021 190.453 778.024ZM189.721 771.516C189.207 767.804 188.53 764.16 187.669 760.621C184.413 747.238 178.588 735.538 169.17 727.333C169.059 737.745 168.114 749.486 166.742 762.948C169.627 763.7 172.446 764.525 175.184 765.432C180.321 767.134 185.204 769.136 189.721 771.516ZM163.849 723.329L163.849 723.355C163.975 734.302 163.024 746.849 161.522 761.678C153.096 759.769 144.207 758.394 135.199 757.313C125.267 756.121 116.428 753.103 108.697 748.436C106.737 738.657 106.458 727.771 108.426 715.687C109.205 710.902 109.974 706.308 110.722 701.888C127.061 709.44 142.053 714.662 151.98 717.796C156.371 719.182 160.315 721.048 163.849 723.329ZM163.642 717.007C162.914 703.971 160.304 693.476 154.842 684.119C148.507 673.266 138.175 663.665 121.808 653.44C120.666 652.726 119.495 652.01 118.295 651.291C118.153 652.863 117.991 654.456 117.812 656.071C116.521 667.741 114.313 680.734 111.755 695.798L111.644 696.45C128.154 704.174 143.444 709.523 153.582 712.724C157.212 713.869 160.559 715.309 163.642 717.007ZM113.208 648.32C113.024 650.652 112.795 653.038 112.524 655.486C111.269 666.821 109.148 679.369 106.653 694.059C94.3087 688.002 81.5135 680.636 69.8503 671.871C68.4959 658.07 68.5428 642.946 70.0284 626.761C87.2518 634.629 101.484 641.644 113.208 648.32ZM113.576 642.421C114.057 631.681 113.388 622.008 111.046 612.448C107.099 596.334 98.3471 580.302 81.8525 559.963C77.9944 574.135 74.888 589.448 72.6386 605.984C72.636 606.003 72.6333 606.022 72.6303 606.041C71.8196 611.174 71.1412 616.22 70.594 621.172C87.5193 628.873 101.72 635.803 113.576 642.421ZM77.7216 554.97C73.3348 570.366 69.8405 587.09 67.3704 605.239C66.6432 609.846 66.0199 614.391 65.5005 618.868C62.2369 617.4 58.877 615.904 55.4181 614.376C43.2524 609.002 33.6612 600.754 26.5303 590.582C27.8677 576.645 32.9991 561.29 43.198 544.413C46.6587 538.687 49.8613 533.091 52.822 527.623C62.4816 537.642 70.7215 546.668 77.7216 554.97ZM79.5255 548.876C97.7858 489.451 129.698 450.544 167.145 426.182C135.474 413.653 108.161 413.302 85.6673 420.706C84.5466 448.125 76.8368 481.734 55.4491 522.684C64.6368 532.175 72.6196 540.833 79.5255 548.876ZM80.248 422.674C78.867 448.491 71.4244 480.14 51.5393 518.668C48.734 515.804 45.8227 512.864 42.8021 509.844C33.9669 501.012 26.8834 492.141 21.3569 483.319C21.6007 482.744 21.8486 482.171 22.1006 481.6C33.0763 456.711 51.6703 435.299 76.817 424.119C77.9468 423.617 79.0905 423.135 80.248 422.674ZM80.4605 416.893C78.4908 417.625 76.5555 418.414 74.6551 419.259C48.6772 430.808 29.5248 452.583 18.0299 477.679C2.71804 450.024 2.38298 423.031 10.9811 399.385C20.5185 373.156 41.1497 350.774 65.2196 336.068C66.0192 339.491 66.7874 342.4 67.4468 344.708C68.1557 347.188 68.9688 349.83 69.8351 352.646C74.505 367.821 80.7204 388.019 80.488 414.967C80.4825 415.606 80.4734 416.248 80.4605 416.893ZM163.701 301.671C161.745 307.964 161.448 315.586 162.792 322.551C163.346 325.418 164.16 328.094 165.205 330.479C165.187 328.901 165.407 327.207 165.859 325.399C168.232 315.912 173.542 307.69 179.378 301.564C180.631 300.249 181.921 299.017 183.225 297.881L167.319 300.863C166.111 301.128 164.905 301.398 163.701 301.671ZM498.151 1153.53C496.328 1150.03 494.249 1146.56 491.891 1143.13C489.227 1140.29 486.596 1137.32 484.006 1134.22C482.515 1136 481.009 1137.75 479.492 1139.45C477.307 1142.99 475.168 1147.1 473.235 1151.71C477.096 1160.16 481.884 1166.67 486.121 1170.34C490.05 1166.94 494.453 1161.09 498.151 1153.53ZM484.51 1175.85C479.879 1172.49 474.89 1166.4 470.674 1158.52C461.885 1184.72 460.535 1223.92 488.422 1269.43C496.976 1255.96 506.252 1234.65 508.586 1210.78C510.195 1194.33 508.506 1176.69 501.021 1159.53C496.925 1166.91 492.165 1172.63 487.733 1175.85L487.717 1175.86L487.702 1175.87L487.697 1175.87L487.679 1175.89C486.775 1176.54 485.518 1176.58 484.564 1175.89L484.548 1175.88C484.535 1175.87 484.523 1175.86 484.51 1175.85ZM501.568 1145.42C499.715 1143.61 497.875 1141.73 496.048 1139.79C493.617 1136.29 490.909 1132.83 487.901 1129.43C493.956 1121.77 499.743 1113.45 505.126 1104.61C507.595 1117.83 506.176 1130.64 502.824 1141.63C502.43 1142.92 502.01 1144.18 501.568 1145.42ZM466.309 1110.07C470.683 1116.87 475.291 1123.33 480.065 1129.37C478.456 1131.38 476.823 1133.68 475.219 1136.25C473.366 1138.31 471.495 1140.32 469.61 1142.25C469.546 1142.04 469.481 1141.83 469.418 1141.63C466.53 1132.16 465.077 1121.35 466.309 1110.07ZM247.615 939.16C261.112 948.898 270.619 959.142 277.552 972.916C287.659 992.995 292.154 1020.32 296.371 1063.88C296.456 1064.76 296.544 1065.63 296.635 1066.5C300.217 1066.6 303.741 1066.41 307.16 1065.94C319.929 1064.19 331.118 1058.64 338.419 1050.36C345.377 1042.46 348.924 1031.98 346.867 1019.5C346.201 1019.27 345.537 1019.03 344.875 1018.78C326.909 1011.87 310.968 996.309 301.864 959.904C301.853 959.858 301.842 959.812 301.834 959.767L247.615 939.16ZM307.932 962.085C316.828 994.705 331.358 1007.88 346.785 1013.81C347.67 1014.15 348.561 1014.47 349.456 1014.76C349.832 1014.8 350.192 1014.92 350.512 1015.1C357.506 1017.29 364.761 1018.24 372.004 1018.89L372.495 1018.93L372.828 1018.96C372.591 1018.44 372.36 1017.92 372.136 1017.4C366.784 1005.06 364.843 992.608 364.842 983.714L307.932 962.085ZM369.755 979.891C369.299 979.218 368.541 978.762 367.667 978.724C367.399 978.712 367.139 978.74 366.893 978.803L216.572 921.671L255.323 814.056H338.467C338.88 814.056 339.287 813.96 339.656 813.775C358.734 804.239 395.69 762.409 399.292 670.592C402.831 580.369 369.058 511.61 350.549 486.81L406.468 378.343C402.346 417.278 417.53 444.827 437.837 477.31C440.668 481.839 443.695 486.823 446.876 492.06L446.88 492.066L446.881 492.069C456.165 507.354 466.76 524.8 477.648 539.429C478.424 540.471 479.202 541.5 479.983 542.515C478.417 544.47 476.853 546.345 475.292 548.128C468.918 541.617 462.312 536.671 456.144 533.868C449.282 530.75 442.84 531.163 437.619 533.814C432.476 536.425 428.697 541.112 426.816 546.284C424.936 551.453 424.867 557.359 427.524 562.381C430.225 567.487 435.513 571.247 443.454 572.468C451.284 573.672 459.178 569.997 466.656 564.016C469.543 561.707 472.435 559.002 475.316 555.99C476.136 556.929 476.952 557.897 477.763 558.895C479.037 560.462 480.295 562.097 481.528 563.793C476.397 572.687 472.069 582.973 469.122 594.065C464.678 610.788 463.353 629.44 467.221 647.966C461.104 660.031 456.14 676.144 457.263 697.468C458.301 717.182 465.069 739.951 475.894 758.409C478.165 762.282 480.632 765.992 483.281 769.459C474.427 779.986 464.002 787.124 452.7 788.63C444.842 789.678 439.276 788.075 435.535 785.344C431.776 782.601 429.573 778.51 428.83 774.055C427.296 764.855 431.989 755.429 440.206 753.603C451.414 751.113 455.332 758.733 454.892 761.814C454.684 763.268 455.694 764.615 457.149 764.823C458.603 765.03 459.951 764.02 460.159 762.566C461.21 755.209 453.282 745.249 439.052 748.411C427.135 751.059 421.76 764 423.582 774.929C424.517 780.539 427.347 785.954 432.397 789.64C437.465 793.34 444.483 795.092 453.404 793.903C466.122 792.208 477.381 784.467 486.687 773.661C495.994 784.467 507.253 792.208 519.971 793.903C528.892 795.092 535.91 793.34 540.978 789.64C546.028 785.954 548.858 780.539 549.793 774.929C551.615 764 546.24 751.059 534.323 748.411C520.092 745.249 512.165 755.209 513.216 762.566C513.424 764.02 514.771 765.03 516.226 764.823C517.68 764.615 518.691 763.268 518.483 761.814C518.043 758.733 521.961 751.113 533.169 753.603C541.386 755.429 546.078 764.855 544.545 774.055C543.802 778.51 541.599 782.601 537.84 785.344C534.099 788.075 528.533 789.678 520.674 788.63C509.373 787.124 498.948 779.986 490.093 769.459C492.742 765.992 495.209 762.282 497.481 758.409C508.306 739.951 515.074 717.182 516.112 697.468C517.142 677.899 513.047 662.719 507.638 651.028C511.999 630.906 509.321 610.782 502.943 593.01C499.057 582.183 493.789 572.194 487.87 563.553C488.834 561.999 489.821 560.498 490.829 559.053C491.329 558.337 491.832 557.636 492.34 556.95C494.913 559.578 497.494 561.955 500.071 564.016C507.549 569.997 515.443 573.672 523.273 572.468C531.214 571.247 536.502 567.487 539.203 562.381C541.86 557.359 541.791 551.453 539.911 546.284C538.03 541.112 534.251 536.425 529.108 533.814C523.887 531.163 517.445 530.75 510.583 533.868C504.237 536.752 497.878 541.96 492.026 548.8C490.27 546.818 488.508 544.717 486.744 542.515C487.525 541.5 488.303 540.471 489.079 539.429C499.967 524.8 510.562 507.354 519.846 492.069L519.847 492.066C523.03 486.827 526.058 481.841 528.89 477.31C549.737 443.964 565.184 415.817 559.89 375.215L615.002 486.785C596.497 511.563 562.699 580.338 566.239 670.592C569.841 762.409 606.798 804.239 625.875 813.775C626.244 813.96 626.652 814.056 627.065 814.056H710.208L748.959 921.671L482.766 1022.84L456.447 1012.84C456.021 1012.51 455.5 1012.31 454.958 1012.27L369.755 979.891ZM486.687 765.141C488.871 762.195 490.942 759.041 492.891 755.719C503.297 737.975 509.806 716.03 510.799 697.188C511.605 681.874 509.158 669.497 505.399 659.428C502.346 669.024 497.58 678.545 490.735 687.733C490.048 688.655 488.879 689.005 487.838 688.693C486.788 689.007 485.61 688.649 484.927 687.714C477.545 677.615 472.468 666.956 469.278 656.15C464.802 666.777 461.68 680.169 462.576 697.188C463.568 716.03 470.078 737.975 480.484 755.719C482.432 759.041 484.504 762.195 486.687 765.141ZM472.831 648.712C475.485 660.316 480.309 671.812 487.851 682.653C494.98 672.593 499.539 662.133 502.041 651.633C497.747 642.867 492.69 636.197 488.76 631.013L488.758 631.01L488.756 631.008C488.023 630.041 487.329 629.126 486.687 628.259C486.045 629.127 485.351 630.043 484.617 631.01L484.616 631.012C481.134 635.604 476.768 641.362 472.831 648.712ZM486.688 620.86C486.169 620.844 485.64 620.979 485.17 621.281C484.597 621.649 484.213 622.201 484.045 622.809C483.102 624.194 481.888 625.786 480.499 627.608C477.858 631.071 474.585 635.365 471.331 640.644C469.088 625.103 470.5 609.595 474.264 595.43C476.851 585.694 480.542 576.628 484.893 568.667C489.988 576.448 494.519 585.291 497.935 594.807C503.331 609.843 505.924 626.486 503.61 643.269C499.86 636.768 495.941 631.628 492.876 627.608C491.487 625.786 490.273 624.193 489.33 622.809C489.161 622.201 488.777 621.649 488.204 621.281C487.735 620.979 487.206 620.844 486.688 620.86ZM370.198 985.75C370.473 993.777 372.368 1004.56 377.018 1015.29C377.62 1016.68 378.268 1018.07 378.964 1019.45C385.083 1019.92 391.147 1020.4 396.692 1021.51C413.927 1024.96 424.377 1032.57 428.505 1041.45C431.748 1048.44 430.887 1055.8 426.828 1061.69C437.766 1071.07 443.937 1081.06 446.72 1090.2C448.795 1097.02 448.98 1103.36 447.819 1108.54C446.674 1113.66 444.138 1117.92 440.51 1120.1C433.686 1124.19 425.917 1121.93 421.995 1116.94C420.003 1114.41 418.952 1111.12 419.585 1107.6C420.217 1104.08 422.458 1100.69 426.368 1097.79C427.547 1096.91 429.214 1097.16 430.09 1098.34C430.967 1099.52 430.721 1101.18 429.542 1102.06C426.429 1104.37 425.158 1106.67 424.822 1108.54C424.488 1110.4 425.015 1112.18 426.176 1113.66C428.562 1116.69 433.41 1118.15 437.772 1115.54C439.737 1114.36 441.676 1111.63 442.627 1107.38C443.564 1103.2 443.469 1097.79 441.629 1091.75C439.178 1083.7 433.619 1074.5 423.322 1065.69C423.049 1065.94 422.769 1066.19 422.482 1066.42C420.224 1068.31 417.047 1069.62 413.697 1070.32C410.317 1071.02 406.54 1071.12 402.963 1070.38C399.384 1069.64 395.876 1068.02 393.25 1065.14C390.59 1062.23 389.035 1058.25 389.035 1053.2C389.035 1051.73 390.226 1050.54 391.696 1050.54C393.165 1050.54 394.356 1051.73 394.356 1053.2C394.356 1057.09 395.525 1059.74 397.179 1061.55C398.867 1063.4 401.263 1064.6 404.043 1065.17C406.825 1065.75 409.863 1065.68 412.62 1065.11C415.407 1064.53 417.688 1063.49 419.076 1062.34L419.107 1062.31C414.878 1059.13 409.986 1056.02 404.349 1053.07C390.931 1046.05 381.739 1035.58 375.632 1024.53C374.283 1024.42 372.916 1024.31 371.53 1024.18C365.331 1023.63 358.879 1022.84 352.47 1021.19C353.929 1034.15 349.934 1045.34 342.411 1053.87C334.121 1063.28 321.68 1069.32 307.882 1071.21C304.414 1071.68 300.854 1071.9 297.243 1071.83C301.623 1107.48 311.236 1132.21 323.618 1148.87C336.856 1166.68 353.371 1175.42 370.494 1178.38C387.687 1181.36 405.61 1178.53 421.508 1172.97C437.411 1167.41 451.093 1159.18 459.76 1151.6C461.646 1149.95 463.525 1148.23 465.392 1146.44C465.02 1145.37 464.665 1144.28 464.329 1143.18C460.727 1131.37 459.198 1117.49 461.983 1103.11C445.093 1074.95 432.321 1041.66 427.97 1007.71L370.198 985.75ZM484.006 1125.78C478.257 1118.47 472.753 1110.56 467.619 1102.15C468.375 1098.76 469.393 1095.34 470.706 1091.93C475.103 1080.5 479.811 1073.75 485.313 1066.54C491.737 1073.81 497.143 1080.51 501.536 1091.93C502.213 1093.69 502.812 1095.45 503.336 1097.21C497.383 1107.46 490.869 1117.06 484.006 1125.78ZM505.765 1149.38C506.593 1150.13 507.422 1150.87 508.252 1151.6C516.919 1159.18 530.602 1167.41 546.505 1172.97C562.403 1178.53 580.325 1181.36 597.519 1178.38C614.641 1175.42 631.157 1166.68 644.395 1148.87C656.777 1132.21 666.391 1107.48 670.771 1071.83C667.031 1071.91 663.344 1071.7 659.757 1071.21C645.958 1069.32 633.518 1063.28 625.228 1053.87C617.704 1045.34 613.71 1034.15 615.168 1021.19C609.017 1022.77 602.824 1023.56 596.855 1024.12C590.749 1035.32 581.496 1045.96 567.913 1053.07C561.354 1056.51 555.802 1060.15 551.131 1063.88C552.253 1064.38 553.567 1064.81 555.018 1065.11C557.775 1065.68 560.813 1065.75 563.595 1065.17C566.376 1064.6 568.771 1063.4 570.459 1061.55C572.113 1059.74 573.283 1057.09 573.283 1053.2C573.283 1051.73 574.474 1050.54 575.943 1050.54C577.412 1050.54 578.603 1051.73 578.603 1053.2C578.603 1058.25 577.049 1062.23 574.389 1065.14C571.763 1068.02 568.255 1069.64 564.676 1070.38C561.099 1071.12 557.321 1071.02 553.941 1070.32C551.338 1069.78 548.838 1068.86 546.794 1067.6C537.861 1075.82 532.908 1084.28 530.633 1091.75C528.793 1097.79 528.698 1103.2 529.635 1107.38C530.586 1111.63 532.525 1114.36 534.49 1115.54C538.852 1118.15 543.7 1116.69 546.086 1113.66C547.247 1112.18 547.774 1110.4 547.44 1108.54C547.104 1106.67 545.833 1104.37 542.72 1102.06C541.541 1101.18 541.295 1099.52 542.172 1098.34C543.048 1097.16 544.715 1096.91 545.894 1097.79C549.804 1100.69 552.045 1104.08 552.677 1107.6C553.31 1111.12 552.26 1114.41 550.267 1116.94C546.345 1121.93 538.576 1124.19 531.752 1120.1C528.124 1117.92 525.589 1113.66 524.443 1108.54C523.282 1103.36 523.467 1097.02 525.543 1090.2C528.087 1081.84 533.466 1072.77 542.732 1064.11C537.079 1057.9 535.43 1049.43 539.133 1041.45C543.261 1032.57 553.712 1024.96 570.947 1021.51C576.674 1020.37 582.954 1019.89 589.276 1019.4L589.305 1019.4C590.699 1019.29 592.094 1019.18 593.487 1019.07C594.111 1017.81 594.697 1016.55 595.244 1015.29C600.411 1003.37 602.176 991.379 602.097 983.179L540.167 1006.72C536.194 1038.95 524.602 1070.62 509.065 1097.92C513.38 1114.13 511.948 1129.96 507.913 1143.18C507.263 1145.31 506.543 1147.38 505.765 1149.38ZM534.522 1008.86L515.336 1016.15C505.196 1039.77 496.706 1051.67 489.353 1061.28C489.106 1061.6 488.86 1061.92 488.616 1062.24C495.428 1069.91 501.614 1077.32 506.502 1090.02C506.621 1090.33 506.738 1090.64 506.853 1090.95C520.397 1066.06 530.557 1037.73 534.522 1008.86ZM508.359 1018.81L486.32 1027.18C485.755 1028.47 484.27 1029.11 482.939 1028.6L482.766 1028.53L482.592 1028.6C481.261 1029.11 479.776 1028.47 479.211 1027.18L459.905 1019.85C468.839 1039.09 477.243 1049.39 484.76 1057.9L485.015 1058.19L485.126 1058.05C491.771 1049.36 499.355 1038.8 508.359 1018.81ZM452.871 1017.17C462.889 1040.19 472.393 1051.93 480.77 1061.42C481.086 1061.78 481.4 1062.14 481.712 1062.49C475.854 1070.13 470.571 1077.47 465.74 1090.02C465.012 1091.91 464.368 1093.81 463.804 1095.69C449.104 1069.97 437.953 1040.23 433.63 1009.86L452.871 1017.17ZM607.364 981.178C607.366 981.207 607.367 981.236 607.369 981.265C607.759 990.228 605.99 1003.88 600.126 1017.4C599.969 1017.77 599.81 1018.13 599.647 1018.49C605.548 1017.84 611.424 1016.88 617.127 1015.1C617.447 1014.92 617.806 1014.8 618.183 1014.76C619.078 1014.47 619.968 1014.15 620.854 1013.81C636.421 1007.82 651.074 994.466 659.947 961.193L607.364 981.178ZM590.409 1024.65L589.41 1024.73C583.186 1025.21 577.374 1025.65 571.99 1026.73C555.668 1029.99 547.102 1036.93 543.959 1043.69C541.224 1049.58 542.345 1055.85 546.732 1060.6C551.914 1056.33 558.107 1052.2 565.444 1048.36C576.689 1042.47 584.754 1033.94 590.409 1024.65ZM665.837 958.954L723.305 937.112C708.25 947.475 697.881 958.174 690.461 972.916C680.354 992.995 675.858 1020.32 671.642 1063.88C671.602 1064.29 671.562 1064.7 671.521 1065.1C671.475 1065.57 671.427 1066.03 671.379 1066.49C667.668 1066.61 664.016 1066.42 660.478 1065.94C647.71 1064.19 636.52 1058.64 629.219 1050.36C622.262 1042.46 618.715 1031.98 620.772 1019.5C621.437 1019.27 622.101 1019.03 622.764 1018.78C640.729 1011.87 656.671 996.309 665.774 959.904C665.854 959.584 665.873 959.263 665.837 958.954ZM414.792 362.197L415.505 360.813C415.76 360.318 415.845 359.78 415.78 359.266C418.763 351.168 423.822 342.992 430.197 334.456C435.958 326.743 442.653 318.912 449.698 310.671L449.7 310.669L449.701 310.667C452.902 306.922 456.176 303.093 459.468 299.151C467.757 289.225 476.088 278.668 483.363 267.219C490.639 278.668 498.97 289.225 507.259 299.151C510.551 303.093 513.825 306.923 517.027 310.668L517.028 310.669C524.073 318.91 530.769 326.743 536.53 334.456C544.893 345.654 550.99 356.232 553.109 366.827C561.842 410.485 546.7 438.786 524.379 474.491C521.472 479.14 518.395 484.206 515.181 489.498L515.179 489.501L515.175 489.507C505.922 504.742 495.533 521.847 484.81 536.254C484.328 536.901 483.846 537.543 483.363 538.178C483.115 537.851 482.867 537.522 482.618 537.191L482.395 536.894L482.136 536.548L481.917 536.254C471.193 521.846 460.803 504.738 451.548 489.502L451.546 489.497C448.332 484.206 445.255 479.14 442.348 474.491C420.027 438.786 404.885 410.485 413.618 366.827C413.927 365.284 414.32 363.741 414.792 362.197ZM368.096 41.977C370.822 36.6679 373.989 31.8612 377.48 27.6068C389.455 27.692 397.308 32.1766 402.747 38.2436C408.131 44.2474 411.286 51.9538 413.477 59.0603C400.52 63.1956 381.919 68.8562 362.178 56.6051C363.773 51.3952 365.771 46.5067 368.096 41.977ZM337.64 47.0741C328.489 43.0272 318.87 41.2508 309.902 41.226C295.774 41.187 283.736 45.4799 277.706 51.5083C272.171 57.0418 267.687 62.0305 263.004 73.7177C260.644 79.6077 258.238 87.1934 255.655 97.3828C272.091 99.1375 287.676 99.9933 303.719 91.974C318.853 84.4091 325.517 71.019 332.267 57.4547L332.269 57.452C333.072 55.8372 333.877 54.2199 334.698 52.6097C335.647 50.7477 336.619 48.894 337.64 47.0741ZM480.786 40.1556L480.817 40.1274C481.567 39.4566 482.266 38.8318 482.89 38.2548C483.608 38.9406 484.403 39.6792 485.256 40.4715L485.258 40.4729C487.685 42.7283 489.747 45.4181 492.156 48.5603C493.261 50.0017 494.439 51.5392 495.759 53.1727C501.474 60.2471 506.075 68.6097 506.075 77.7915C506.075 98.3798 497.257 108.563 486.977 120.436L486.974 120.439L486.966 120.449C485.781 121.817 484.576 123.209 483.363 124.641C482.147 123.204 480.939 121.809 479.75 120.436C469.47 108.563 460.652 98.3798 460.652 77.7915C460.652 68.4174 464.299 59.9736 468.888 52.9571C472.297 47.7437 477.143 43.4122 480.783 40.158L480.786 40.1556ZM466.638 207.232C468.523 225.61 474.831 241.963 483.363 256.921C491.896 241.963 498.204 225.61 500.089 207.232C502.3 185.688 500.624 170.265 496.978 158.455C493.685 147.786 488.742 139.923 483.363 133.043C477.985 139.923 473.042 147.786 469.749 158.455C466.103 170.265 464.427 185.688 466.638 207.232ZM478.932 552.046C480.415 550.365 481.893 548.611 483.364 546.798C485.116 548.958 486.879 551.034 488.647 553.004C487.909 553.981 487.181 554.984 486.465 556.01C485.809 556.951 485.161 557.914 484.523 558.898C483.655 557.749 482.777 556.629 481.891 555.539C480.916 554.34 479.929 553.174 478.932 552.046ZM495.663 552.736C498.263 555.427 500.844 557.823 503.394 559.862C510.463 565.515 516.844 568.075 522.464 567.211C529.066 566.195 532.727 563.245 534.5 559.894C536.317 556.459 536.386 552.16 534.911 548.102C533.436 544.048 530.503 540.488 526.699 538.556C522.97 536.663 518.227 536.238 512.784 538.711C507.186 541.255 501.268 546.078 495.663 552.736ZM471.704 552.068C468.888 555.031 466.092 557.656 463.333 559.862C456.264 565.515 449.883 568.075 444.263 567.211C437.661 566.195 434 563.245 432.227 559.894C430.41 556.459 430.34 552.16 431.816 548.102C433.291 544.048 436.224 540.488 440.028 538.556C443.757 536.663 448.5 536.238 453.943 538.711C459.438 541.208 465.601 545.794 471.704 552.068ZM676.769 1066.09C698.244 1063.62 720.841 1050.53 734.642 1022.93C747.231 997.759 757.415 979.871 766.755 967.17C755.084 955.636 747.243 942.388 743.514 933.442C743.072 932.381 743.369 931.196 744.17 930.46C719.081 944.713 704.611 956.637 695.213 975.307C685.618 994.37 681.165 1020.72 676.938 1064.39L676.891 1064.88L676.838 1065.41L676.769 1066.09ZM781.946 957.527C779.312 960.1 776.642 963.094 773.887 966.58C785.323 976.828 800.007 984.875 817.681 985.678C853.767 987.318 875.707 975.058 883.457 967.911C874.22 955.383 853.103 939.417 819.987 941.782C804.734 942.871 793.665 946.077 781.946 957.527ZM382.086 1025.03C387.729 1034.17 395.727 1042.55 406.818 1048.36C412.853 1051.52 418.114 1054.87 422.675 1058.34C425.545 1053.96 426 1048.69 423.68 1043.69C420.536 1036.93 411.971 1029.99 395.648 1026.73C391.393 1025.88 386.869 1025.42 382.086 1025.03ZM193.751 966.58C190.997 963.094 188.326 960.1 185.692 957.527C173.974 946.077 162.904 942.871 147.652 941.782C114.536 939.417 93.4181 955.383 84.1814 967.911C91.9319 975.058 113.872 987.318 149.958 985.678C167.631 984.875 182.316 976.828 193.751 966.58ZM597.577 31.5972C600.164 35.1514 602.532 38.9936 604.637 43.0944C606.868 47.4402 608.808 52.0823 610.404 56.9908C610.998 56.5388 611.593 56.0695 612.188 55.5824C615.588 52.8016 619.154 50.4231 622.821 48.4148C620.703 45.1782 618.387 42.2673 615.679 39.7928C611.178 35.68 605.492 32.6845 597.577 31.5972ZM794.39 143.71C794.277 143.199 794.159 142.69 794.037 142.183C792.001 141.69 789.93 141.22 787.821 140.773C766.047 136.155 745.232 135.354 725.651 137.471C725.804 138.274 725.957 139.085 726.11 139.905C729.278 156.799 741.284 169.642 755.54 177.49C769.184 185 784.377 187.655 795.013 185.218C796.968 174.003 797.602 158.232 794.39 143.71ZM788.925 135.57C766.401 130.793 744.876 129.995 724.644 132.229C722.641 121.948 720.759 113.142 718.957 105.552C735.72 103.696 752.109 102.16 769.464 109.305C781.205 114.138 788.361 124.239 792.369 136.327C791.232 136.068 790.084 135.815 788.925 135.57ZM632.641 166.225C657.105 149.944 686.444 137.425 719.351 132.887C717.324 122.502 715.43 113.683 713.628 106.142C696.875 107.958 679.659 109.154 661.902 100.278C645.076 91.8671 637.615 76.804 630.956 63.3593L630.954 63.356L630.951 63.3509L630.949 63.3469L630.946 63.3401C630.145 61.722 629.355 60.1273 628.561 58.5706C627.578 56.6416 626.592 54.7702 625.577 52.9713C622.117 54.851 618.755 57.0836 615.558 59.6992C614.37 60.671 613.183 61.578 611.998 62.4237C614.286 71.1338 615.512 80.5898 615.408 90.6421C619.664 92.6001 623.289 95.1236 626.329 98.1101C632.789 104.455 636.412 112.69 638.023 121.475C640.742 136.3 637.807 153.058 632.641 166.225ZM590.52 31.1529C594.011 35.4073 597.178 40.214 599.904 45.5232C602.229 50.0528 604.227 54.9414 605.822 60.1512C586.081 72.4023 567.48 66.7418 554.523 62.6064C556.714 55.4999 559.869 47.7936 565.253 41.7898C570.692 35.7228 578.545 31.2381 590.52 31.1529ZM658.099 44.7722C649.13 44.7969 639.511 46.5733 630.36 50.6203C631.381 52.4402 632.353 54.2938 633.302 56.1559C634.122 57.7657 634.927 59.3826 635.731 60.9971L635.733 61.0007C642.483 74.5652 649.147 87.9552 664.281 95.5202C680.324 103.539 695.909 102.684 712.345 100.929C709.762 90.7396 707.356 83.1538 704.996 77.2639C700.313 65.5767 695.829 60.588 690.294 55.0545C684.264 49.0261 672.226 44.7332 658.099 44.7722ZM956.596 559.159C961.49 536.656 959.124 511.014 950.174 487.674C944.581 496.336 937.561 505.007 928.96 513.606C925.515 517.05 922.218 520.385 919.063 523.617C922.202 529.476 925.626 535.49 929.356 541.663C938.929 557.504 944.29 572.243 946.266 585.913C951.069 577.866 954.496 568.814 956.596 559.159ZM940.343 612.819C941.125 609 941.615 605.051 941.774 600.971C934.969 608.538 926.572 614.795 916.506 619.242C912.49 621.016 908.612 622.746 904.869 624.435C906.3 639.053 906.595 652.91 905.755 665.807C907.068 664.694 908.36 663.561 909.629 662.408C924.749 648.666 936.367 632.22 940.343 612.819ZM890.871 711.154C894.838 701.288 897.645 690.057 899.262 677.666C887.411 686.315 874.576 693.568 862.275 699.524C863.099 704.387 863.954 709.48 864.826 714.832C866.655 726.068 866.639 736.348 865.188 745.724C876.326 737.727 884.902 725.995 890.871 711.154ZM833.498 793.055C843.83 783.489 852.563 771.428 857.244 756.484C850.57 759.563 843.223 761.633 835.209 762.595C826.061 763.692 817.152 765.085 808.803 767.009C809.378 772.454 810.015 778.195 810.689 784.264C811.693 793.295 811.931 801.479 811.542 808.883C819.082 804.647 826.642 799.403 833.498 793.055ZM793.751 849.095C799.03 841.771 803.39 831.689 805.324 818.063C795.008 822.912 785.223 825.961 777.709 827.463C777.002 827.604 776.269 827.453 775.676 827.044C775.083 826.635 774.681 826.003 774.563 825.292C772.403 812.34 771.147 797.71 771.855 783.319C770.403 784.545 769.038 785.84 767.767 787.207C754.224 801.769 750.355 825.656 767.219 866.663C774.951 865.426 785.536 860.492 793.751 849.095ZM779.369 821.659C777.317 808.287 776.32 793.447 777.45 779.188C782.912 775.654 789.253 772.804 796.263 770.482C798.639 769.695 801.084 768.971 803.59 768.302C804.147 773.559 804.759 779.068 805.401 784.851C806.527 794.977 806.653 803.924 806.016 811.815C796.272 816.692 786.859 819.903 779.369 821.659ZM780.331 760.621C779.39 764.491 778.668 768.487 778.139 772.56C783.179 769.715 788.718 767.378 794.59 765.433C797.328 764.526 800.147 763.701 803.032 762.948C801.595 748.852 800.627 736.643 800.594 725.871C790.132 734.117 783.786 746.422 780.331 760.621ZM805.938 722.409L805.941 722.23C809.004 720.443 812.356 718.953 816.02 717.796C825.947 714.662 840.939 709.44 857.278 701.888C858.026 706.308 858.795 710.902 859.574 715.687C861.621 728.254 861.237 739.525 859.06 749.602C851.819 753.609 843.654 756.224 834.575 757.314C825.567 758.394 816.677 759.769 808.251 761.679C806.75 746.85 805.799 734.303 805.924 723.356C805.927 723.138 805.93 722.922 805.933 722.706L805.938 722.409ZM814.932 684.119C809.605 693.245 806.99 703.453 806.189 716.045C808.755 714.76 811.495 713.646 814.418 712.724C824.556 709.523 839.846 704.174 856.356 696.45L856.245 695.798L856.245 695.795C853.686 680.733 851.479 667.74 850.188 656.071C850.048 654.803 849.918 653.549 849.799 652.307C849.18 652.686 848.569 653.063 847.965 653.44C831.599 663.666 821.266 673.267 814.932 684.119ZM855.476 655.486C855.243 653.377 855.04 651.315 854.871 649.293C866.911 642.326 881.683 635.013 899.745 626.762C901.179 642.379 901.273 657.008 900.061 670.415C887.893 679.824 874.369 687.669 861.347 694.059C858.852 679.369 856.731 666.821 855.476 655.486ZM856.954 612.448C854.542 622.296 853.904 632.263 854.471 643.393C866.668 636.482 881.424 629.251 899.18 621.173C898.632 616.22 897.954 611.174 897.143 606.041L897.141 606.027L897.135 605.985C894.799 588.815 891.54 572.963 887.474 558.338C870.12 579.454 861.006 595.907 856.954 612.448ZM902.403 605.24C899.849 586.475 896.2 569.234 891.602 553.408C898.312 545.539 906.121 537.017 915.178 527.623C918.139 533.091 921.341 538.687 924.802 544.413C935.537 562.178 940.658 578.256 941.649 592.77C934.705 601.938 925.637 609.393 914.355 614.377C910.897 615.905 907.537 617.401 904.273 618.869C903.754 614.391 903.13 609.847 902.403 605.24ZM802.628 426.183C839.757 450.337 871.444 488.791 889.779 547.364C896.381 539.75 903.936 531.583 912.551 522.684C891.015 481.449 883.347 447.658 882.31 420.135C860.164 413.33 833.461 413.985 802.628 426.183ZM916.461 518.668C896.396 479.792 889 447.919 887.716 421.976C889.495 422.642 891.242 423.358 892.957 424.12C918.103 435.3 936.697 456.712 947.673 481.6L947.685 481.627C942.016 491.006 934.598 500.447 925.198 509.845C922.177 512.864 919.266 515.804 916.461 518.668ZM895.118 419.26C892.647 418.161 890.116 417.156 887.528 416.25C887.524 415.992 887.52 415.735 887.517 415.479L887.516 415.354L887.512 414.967C887.28 388.019 893.495 367.821 898.165 352.646C899.031 349.83 899.844 347.188 900.553 344.708C901.213 342.4 901.981 339.491 902.78 336.068C926.85 350.774 947.482 373.156 957.019 399.385C965.435 422.53 965.292 448.881 950.923 475.922C939.348 451.569 920.488 430.539 895.118 419.26ZM800.682 300.863C801.89 301.128 803.096 301.398 804.299 301.671C806.255 307.964 806.552 315.586 805.208 322.551C804.654 325.418 803.84 328.094 802.795 330.479C802.813 328.901 802.593 327.207 802.141 325.399C799.768 315.912 794.458 307.69 788.622 301.564C787.369 300.249 786.079 299.017 784.775 297.881L800.682 300.863ZM792.244 343.138L792.193 343.201C791.465 344.1 790.644 345.165 789.769 346.301L789.766 346.304L789.763 346.308C789.176 347.07 788.563 347.864 787.938 348.662C784.733 352.75 780.781 357.469 775.894 361.495C771.018 365.512 765.285 368.777 758.532 370.045C752.472 371.182 745.421 370.743 737.21 367.572C741.546 360.705 750.054 351.448 762.104 348.77C766.565 347.779 771.145 347.124 775.618 346.484L776.972 346.29C781.801 345.596 786.537 344.874 790.528 343.692C791.107 343.52 791.68 343.336 792.244 343.138ZM175.756 343.138L175.807 343.201C176.535 344.101 177.357 345.167 178.233 346.304L178.235 346.305C178.823 347.068 179.436 347.863 180.062 348.662C183.267 352.75 187.219 357.469 192.106 361.495C196.982 365.512 202.715 368.777 209.468 370.045C215.528 371.182 222.579 370.743 230.79 367.572C226.454 360.705 217.946 351.448 205.896 348.77C201.435 347.779 196.855 347.124 192.383 346.484L191.028 346.29C186.199 345.596 181.463 344.874 177.472 343.692C176.893 343.52 176.32 343.336 175.756 343.138ZM692.532 234.218C692.609 234.095 692.687 233.973 692.765 233.851C698.624 224.683 707.823 216.477 723.067 209.944C732.43 205.931 744.197 205.355 754.824 206.943C760.112 207.734 765.035 209.049 769.139 210.683C772.001 211.823 774.385 213.086 776.205 214.378L775.816 214.758C770.247 220.2 762.492 227.778 749.082 232.603C736.412 237.162 718.497 239.297 692.532 234.218ZM134.644 219.396C134.574 220.191 134.572 220.984 134.628 221.77L134.548 221.648L134.462 221.516C129.844 214.46 127.072 206.426 128.542 199.079C130.029 191.645 133.4 186.435 138.397 181.017C140.229 185.784 142.053 191.084 142.885 196.035C143.975 202.517 143.191 207.294 139.932 209.901C136.575 212.586 134.954 215.904 134.644 219.396ZM833.356 219.396C833.426 220.191 833.428 220.984 833.372 221.77C833.417 221.702 833.461 221.635 833.506 221.567L833.539 221.516C838.156 214.46 840.928 206.426 839.458 199.079C837.971 191.645 834.6 186.435 829.603 181.017C827.771 185.784 825.947 191.084 825.115 196.035C824.025 202.517 824.81 207.294 828.068 209.901C831.425 212.586 833.046 215.904 833.356 219.396ZM275.995 233.848C276.073 233.97 276.151 234.092 276.228 234.214C250.263 239.293 232.348 237.159 219.678 232.6C206.268 227.775 198.513 220.196 192.944 214.755L192.555 214.374C194.375 213.082 196.759 211.819 199.621 210.68C203.725 209.045 208.648 207.73 213.936 206.94C224.563 205.352 236.33 205.928 245.693 209.941C260.937 216.473 270.136 224.68 275.995 233.848Z" fill="#212326"/>
<path fill-rule="evenodd" clip-rule="evenodd" d="M803.657 450.807C803.842 449.82 804.568 449.022 805.533 448.743C806.498 448.464 807.538 448.752 808.221 449.488C813.269 454.922 820.275 464.696 825.123 476.573C829.97 488.449 832.757 502.675 828.977 516.845C828.727 517.782 827.987 518.509 827.045 518.742C826.104 518.975 825.11 518.677 824.452 517.964C819.762 512.885 813.21 503.552 808.501 491.821C803.788 480.078 800.853 465.759 803.657 450.807ZM820.196 478.583C824.149 488.267 826.503 499.252 824.914 510.212C821.152 505.271 816.803 498.219 813.439 489.84C809.615 480.312 807.114 469.195 808.099 457.594C812.147 462.831 816.752 470.143 820.196 478.583Z" fill="#212326"/>
<path fill-rule="evenodd" clip-rule="evenodd" d="M164.343 450.807C164.158 449.82 163.432 449.022 162.467 448.743C161.502 448.464 160.462 448.752 159.779 449.488C154.731 454.922 147.725 464.696 142.877 476.573C138.03 488.449 135.243 502.675 139.023 516.845C139.273 517.782 140.013 518.509 140.955 518.742C141.896 518.975 142.89 518.677 143.548 517.964C148.238 512.885 154.79 503.552 159.499 491.821C164.212 480.078 167.147 465.759 164.343 450.807ZM147.804 478.583C143.851 488.267 141.498 499.252 143.086 510.212C146.848 505.271 151.197 498.219 154.561 489.84C158.385 480.312 160.886 469.195 159.901 457.594C155.853 462.831 151.248 470.143 147.804 478.583Z" fill="#212326"/>
</svg>
