<svg width="24" height="24" viewBox="0 0 24 24" fill="none" xmlns="http://www.w3.org/2000/svg">
<path d="M19.2578 8.47583C19.5411 8.47583 19.7786 8.38 19.9703 8.18833C20.162 7.99666 20.2578 7.75916 20.2578 7.47583C20.2578 7.1925 20.162 6.955 19.9703 6.76333C19.7786 6.57166 19.5411 6.47583 19.2578 6.47583C18.9745 6.47583 18.737 6.57166 18.5453 6.76333C18.3536 6.955 18.2578 7.1925 18.2578 7.47583C18.2578 7.75916 18.3536 7.99666 18.5453 8.18833C18.737 8.38 18.9745 8.47583 19.2578 8.47583ZM19.2571 9.97583C18.5486 9.97583 17.9549 9.7365 17.4761 9.25783C16.9972 8.779 16.7578 8.18575 16.7578 7.47808C16.7578 6.78425 16.9972 6.19375 17.4761 5.70658C17.9547 5.21941 18.5479 4.97583 19.2556 4.97583C19.9494 4.97583 20.5399 5.219 21.0271 5.70533C21.5142 6.1915 21.7578 6.78191 21.7578 7.47658C21.7578 8.18508 21.5146 8.77875 21.0283 9.25758C20.5421 9.73641 19.9517 9.97583 19.2571 9.97583ZM12.2578 7.47583C12.6745 7.47583 13.0286 7.33416 13.3203 7.05083C13.612 6.7675 13.7578 6.40916 13.7578 5.97583C13.7578 5.55916 13.612 5.205 13.3203 4.91333C13.0286 4.62166 12.6745 4.47583 12.2578 4.47583C11.8245 4.47583 11.4661 4.62166 11.1828 4.91333C10.8995 5.205 10.7578 5.55916 10.7578 5.97583C10.7578 6.40916 10.8995 6.7675 11.1828 7.05083C11.4661 7.33416 11.8245 7.47583 12.2578 7.47583ZM12.2583 8.97583C11.4156 8.97583 10.7049 8.68683 10.1261 8.10883C9.54723 7.53083 9.25781 6.82091 9.25781 5.97908C9.25781 5.15125 9.54681 4.44375 10.1248 3.85658C10.7028 3.26941 11.4128 2.97583 12.2548 2.97583C13.0825 2.97583 13.7899 3.26866 14.3771 3.85433C14.9642 4.43983 15.2578 5.14683 15.2578 5.97533C15.2578 6.818 14.965 7.52875 14.3793 8.10758C13.7938 8.68641 13.0868 8.97583 12.2583 8.97583ZM7.98856 13.3508C7.98856 13.9022 8.26165 14.524 8.80781 15.2163C9.35398 15.9085 10.4431 16.9957 12.0751 18.4778L12.2578 18.6413L12.4598 18.4488C14.0265 17.0322 15.096 15.9699 15.6683 15.2621C16.2408 14.5542 16.5271 13.9172 16.5271 13.3508C16.5271 12.8925 16.3761 12.5038 16.0743 12.1848C15.7726 11.866 15.4005 11.7066 14.9578 11.7066C14.6853 11.7066 14.4275 11.7662 14.1843 11.8853C13.941 12.0047 13.7366 12.1688 13.5713 12.3778L12.4578 13.7066H12.0426L10.9193 12.3778C10.754 12.1688 10.5511 12.0047 10.3108 11.8853C10.0703 11.7662 9.81931 11.7066 9.55781 11.7066C9.09515 11.7066 8.7179 11.866 8.42606 12.1848C8.1344 12.5038 7.98856 12.8925 7.98856 13.3508ZM6.48856 13.3508C6.48856 12.5317 6.7774 11.8028 7.35506 11.1643C7.93256 10.5258 8.66681 10.2066 9.55781 10.2066C10.0616 10.2066 10.5382 10.3232 10.9876 10.5566C11.4369 10.7899 11.8186 11.1002 12.1328 11.4873L12.2578 11.6316L12.3828 11.4778C12.7033 11.097 13.0841 10.7899 13.5251 10.5566C13.9661 10.3232 14.4436 10.2066 14.9578 10.2066C15.8425 10.2066 16.5751 10.5287 17.1558 11.1731C17.7366 11.8176 18.0271 12.5435 18.0271 13.3508C18.0271 14.1828 17.7142 15.0168 17.0886 15.8528C16.4629 16.6887 15.2129 17.9637 13.3386 19.6778L12.2578 20.6681L11.1963 19.7066C9.27581 17.9502 8.01106 16.6615 7.40206 15.8403C6.79306 15.0192 6.48856 14.1893 6.48856 13.3508ZM5.25781 8.47583C5.54115 8.47583 5.77865 8.38 5.97031 8.18833C6.16198 7.99666 6.25781 7.75916 6.25781 7.47583C6.25781 7.1925 6.16198 6.955 5.97031 6.76333C5.77865 6.57166 5.54115 6.47583 5.25781 6.47583C4.97448 6.47583 4.73698 6.57166 4.54531 6.76333C4.35365 6.955 4.25781 7.1925 4.25781 7.47583C4.25781 7.75916 4.35365 7.99666 4.54531 8.18833C4.73698 8.38 4.97448 8.47583 5.25781 8.47583ZM12.3328 21.4758V19.9758H20.2578V13.2836C20.2578 13.2002 20.2274 13.1281 20.1666 13.0671C20.1056 13.0062 20.0334 12.9758 19.9501 12.9758H17.3463V11.4758H19.9501C20.4472 11.4758 20.8728 11.6528 21.2268 12.0068C21.5808 12.3608 21.7578 12.7864 21.7578 13.2836V21.4758H12.3328ZM4.25781 19.9758H12.3328V21.4758H2.75781V13.2861C2.75781 12.7857 2.93106 12.3589 3.27756 12.0056C3.62406 11.6524 4.0534 11.4758 4.56556 11.4758H7.16931V12.9758H4.56556C4.47573 12.9758 4.40198 13.0062 4.34431 13.0671C4.28665 13.1281 4.25781 13.2002 4.25781 13.2836V19.9758ZM5.25706 9.97583C4.54856 9.97583 3.9549 9.7365 3.47606 9.25783C2.99723 8.779 2.75781 8.18575 2.75781 7.47808C2.75781 6.78425 2.99723 6.19375 3.47606 5.70658C3.95473 5.21941 4.5479 4.97583 5.25556 4.97583C5.9494 4.97583 6.5399 5.219 7.02706 5.70533C7.51423 6.1915 7.75781 6.78191 7.75781 7.47658C7.75781 8.18508 7.51465 8.77875 7.02831 9.25758C6.54215 9.73641 5.95173 9.97583 5.25706 9.97583Z" fill="#23252C"/>
</svg>
