<svg width="24" height="24" viewBox="0 0 24 24" fill="none" xmlns="http://www.w3.org/2000/svg">
<path d="M6.77148 21.8423V17.8115C5.82148 16.9449 5.08398 15.9516 4.55898 14.8318C4.03398 13.7118 3.77148 12.5463 3.77148 11.3353C3.77148 8.97612 4.5979 6.97087 6.25073 5.31954C7.9034 3.66804 9.91032 2.84229 12.2715 2.84229C14.2138 2.84229 15.9507 3.42278 17.482 4.58378C19.0135 5.74462 20.0081 7.2507 20.4657 9.10204L21.634 13.7165C21.709 14.0017 21.6561 14.2606 21.4752 14.4933C21.2946 14.726 21.0536 14.8423 20.7522 14.8423H18.7715V18.0345C18.7715 18.5317 18.5945 18.9573 18.2405 19.3113C17.8865 19.6653 17.4609 19.8423 16.9637 19.8423H14.7715V21.8423H13.2715V18.3423H16.9637C17.0536 18.3423 17.1273 18.3135 17.185 18.2558C17.2427 18.1981 17.2715 18.1244 17.2715 18.0345V13.3423H19.9715L19.0215 9.46729C18.6382 7.94429 17.8183 6.70937 16.562 5.76254C15.3055 4.8157 13.8753 4.34229 12.2715 4.34229C10.3382 4.34229 8.68815 5.0182 7.32148 6.37003C5.95482 7.72187 5.27148 9.36579 5.27148 11.3018C5.27148 12.3003 5.47565 13.2488 5.88398 14.1473C6.29232 15.0458 6.87148 15.8445 7.62148 16.5433L8.27148 17.1423V21.8423H6.77148ZM11.4927 15.1308H13.0502L13.1617 14.0443C13.3592 13.9943 13.5442 13.9215 13.7167 13.826C13.8891 13.7304 14.0362 13.612 14.158 13.471L15.135 13.923L15.9137 12.598L15.0485 11.9538C15.1202 11.75 15.156 11.5461 15.156 11.3423C15.156 11.1385 15.1202 10.9346 15.0485 10.7308L15.9137 10.0865L15.135 8.76154L14.158 9.21353C14.0362 9.07254 13.8891 8.9542 13.7167 8.85854C13.5442 8.76304 13.3592 8.69029 13.1617 8.64029L13.0502 7.55379H11.4927L11.3812 8.64029C11.1837 8.69029 10.9987 8.76304 10.8262 8.85854C10.6539 8.9542 10.5068 9.07254 10.385 9.21353L9.40798 8.76154L8.62923 10.0865L9.49448 10.7308C9.42282 10.9346 9.38698 11.1385 9.38698 11.3423C9.38698 11.5461 9.42282 11.75 9.49448 11.9538L8.62923 12.598L9.40798 13.923L10.385 13.471C10.5068 13.612 10.6539 13.7304 10.8262 13.826C10.9987 13.9215 11.1837 13.9943 11.3812 14.0443L11.4927 15.1308ZM12.271 13.025C11.8033 13.025 11.4061 12.8614 11.0792 12.534C10.7522 12.2067 10.5887 11.8093 10.5887 11.3418C10.5887 10.8741 10.7524 10.4769 11.0797 10.15C11.4071 9.82304 11.8045 9.65954 12.272 9.65954C12.7397 9.65954 13.1369 9.8232 13.4637 10.1505C13.7907 10.4779 13.9542 10.8753 13.9542 11.3428C13.9542 11.8105 13.7906 12.2077 13.4632 12.5345C13.1359 12.8615 12.7385 13.025 12.271 13.025Z" fill="#23252C"/>
</svg>
