<svg width="24" height="24" viewBox="0 0 24 24" fill="none" xmlns="http://www.w3.org/2000/svg">
<path d="M11.7883 19.971C11.887 19.971 11.9873 19.9479 12.0893 19.9017C12.1911 19.8556 12.2715 19.803 12.3305 19.744L20.3286 11.746C20.5542 11.5203 20.7241 11.2792 20.8383 11.0227C20.9523 10.7664 21.0093 10.4972 21.0093 10.2152C21.0093 9.9229 20.9523 9.64148 20.8383 9.37098C20.7241 9.10032 20.5542 8.85732 20.3286 8.64198L16.3285 4.64198C16.1132 4.41632 15.8799 4.25123 15.6285 4.14673C15.3774 4.0424 15.1056 3.99023 14.8133 3.99023C14.5313 3.99023 14.2605 4.0424 14.0008 4.14673C13.7411 4.25123 13.5017 4.41632 13.2825 4.64198L12.7093 5.21523L14.5593 7.08048C14.7836 7.29465 14.9494 7.5389 15.0565 7.81323C15.1635 8.08757 15.217 8.37215 15.217 8.66698C15.217 9.27732 15.0132 9.78632 14.6055 10.194C14.1979 10.6017 13.6889 10.8055 13.0785 10.8055C12.7837 10.8055 12.4981 10.7567 12.2218 10.6592C11.9456 10.5619 11.7005 10.4062 11.4863 10.192L9.59205 8.31323L5.24605 12.6592C5.17038 12.7349 5.11363 12.8196 5.0758 12.9132C5.03796 13.0067 5.01905 13.1029 5.01905 13.2017C5.01905 13.3862 5.08188 13.5439 5.20755 13.6747C5.33321 13.8056 5.4883 13.871 5.6728 13.871C5.77163 13.871 5.87196 13.8479 5.9738 13.8017C6.0758 13.7556 6.1563 13.703 6.2153 13.644L9.4998 10.3595L10.5535 11.4132L7.2843 14.6977C7.2088 14.7734 7.15213 14.8581 7.1143 14.9517C7.07646 15.0452 7.05755 15.1414 7.05755 15.2402C7.05755 15.4184 7.12197 15.5719 7.2508 15.7007C7.37963 15.8296 7.53313 15.894 7.7113 15.894C7.81013 15.894 7.91046 15.8709 8.0123 15.8247C8.1143 15.7786 8.19471 15.726 8.25355 15.667L11.6535 12.2825L12.7075 13.3362L9.3228 16.7362C9.25363 16.7952 9.19855 16.8757 9.15755 16.9775C9.11655 17.0795 9.09605 17.1798 9.09605 17.2785C9.09605 17.4568 9.16046 17.6104 9.2893 17.7392C9.41813 17.8681 9.57163 17.9325 9.7498 17.9325C9.84846 17.9325 9.94463 17.9136 10.0383 17.8757C10.1318 17.8379 10.2164 17.7812 10.292 17.7055L13.692 14.321L14.746 15.3747L11.346 18.7747C11.2704 18.8504 11.2136 18.9382 11.1758 19.0382C11.138 19.1382 11.119 19.2344 11.119 19.3267C11.119 19.5112 11.1876 19.6647 11.3248 19.7872C11.462 19.9097 11.6165 19.971 11.7883 19.971ZM11.7728 21.4707C11.2075 21.4707 10.7145 21.2747 10.294 20.8825C9.87355 20.4902 9.65372 20.0017 9.63455 19.417C9.06788 19.3785 8.59446 19.1772 8.2143 18.8132C7.83413 18.4491 7.62805 17.9708 7.59605 17.3785C7.00372 17.3402 6.52488 17.1332 6.15955 16.7575C5.79405 16.3818 5.59846 15.9093 5.5728 15.34C4.97796 15.3017 4.48696 15.086 4.0998 14.693C3.71263 14.3 3.51905 13.8029 3.51905 13.2017C3.51905 12.9069 3.57513 12.6181 3.6873 12.3352C3.79946 12.0526 3.96263 11.8042 4.1768 11.5902L9.59205 6.19023L12.521 9.11899C12.5799 9.18815 12.657 9.24332 12.7525 9.28448C12.8482 9.32548 12.9518 9.34598 13.0633 9.34598C13.2453 9.34598 13.4023 9.28573 13.5343 9.16523C13.6665 9.04473 13.7325 8.88698 13.7325 8.69198C13.7325 8.58048 13.712 8.47698 13.671 8.38148C13.6299 8.28598 13.5747 8.20873 13.5055 8.14973L9.9978 4.64198C9.78246 4.41632 9.54755 4.25123 9.29305 4.14673C9.03855 4.0424 8.76513 3.99023 8.4728 3.99023C8.1908 3.99023 7.92321 4.0424 7.67005 4.14673C7.41671 4.25123 7.1773 4.41632 6.9518 4.64198L3.66705 7.94198C3.48505 8.12398 3.33605 8.33907 3.22005 8.58723C3.10405 8.83523 3.0358 9.08815 3.0153 9.34598C2.99463 9.55882 3.00421 9.7694 3.04405 9.97773C3.08371 10.1861 3.15355 10.3819 3.25355 10.5652L2.1498 11.669C1.92413 11.3433 1.7543 10.9786 1.6403 10.5747C1.52613 10.1709 1.4793 9.76132 1.4998 9.34598C1.5203 8.88565 1.62413 8.44107 1.8113 8.01223C1.99846 7.5834 2.26063 7.2004 2.5978 6.86323L5.8728 3.58823C6.2473 3.22407 6.65472 2.95007 7.09505 2.76623C7.53538 2.58223 7.99788 2.49023 8.48255 2.49023C8.96705 2.49023 9.42788 2.58223 9.86505 2.76623C10.3024 2.95007 10.703 3.22407 11.067 3.58823L11.6403 4.16124L12.2133 3.58823C12.5876 3.22407 12.9934 2.95007 13.4305 2.76623C13.8677 2.58223 14.3286 2.49023 14.8133 2.49023C15.298 2.49023 15.7605 2.58223 16.2008 2.76623C16.6411 2.95007 17.0434 3.22407 17.4075 3.58823L21.3825 7.56323C21.7465 7.9274 22.0254 8.34182 22.219 8.80649C22.4125 9.27115 22.5093 9.74582 22.5093 10.2305C22.5093 10.7152 22.4125 11.1761 22.219 11.6132C22.0254 12.0504 21.7465 12.451 21.3825 12.815L13.3843 20.7977C13.1638 21.0182 12.9155 21.1856 12.6393 21.2997C12.363 21.4137 12.0741 21.4707 11.7728 21.4707Z" fill="#23252C"/>
</svg>
