<svg width="24" height="24" viewBox="0 0 24 24" fill="none" xmlns="http://www.w3.org/2000/svg">
<path d="M5.12709 21.3701C4.62192 21.3701 4.19434 21.1951 3.84434 20.8451C3.49434 20.4951 3.31934 20.0676 3.31934 19.5624V6.17788C3.31934 5.67272 3.49434 5.24513 3.84434 4.89513C4.19434 4.54513 4.62192 4.37013 5.12709 4.37013H6.51159V2.25488H8.05009V4.37013H15.6271V2.25488H17.1271V4.37013H18.5116C19.0168 4.37013 19.4443 4.54513 19.7943 4.89513C20.1443 5.24513 20.3193 5.67272 20.3193 6.17788V19.5624C20.3193 20.0676 20.1443 20.4951 19.7943 20.8451C19.4443 21.1951 19.0168 21.3701 18.5116 21.3701H5.12709ZM5.12709 19.8701H18.5116C18.5886 19.8701 18.6591 19.8381 18.7231 19.7739C18.7873 19.7099 18.8193 19.6394 18.8193 19.5624V10.1779H4.81934V19.5624C4.81934 19.6394 4.85142 19.7099 4.91559 19.7739C4.97959 19.8381 5.05009 19.8701 5.12709 19.8701ZM4.81934 8.67788H18.8193V6.17788C18.8193 6.10088 18.7873 6.03038 18.7231 5.96638C18.6591 5.90222 18.5886 5.87013 18.5116 5.87013H5.12709C5.05009 5.87013 4.97959 5.90222 4.91559 5.96638C4.85142 6.03038 4.81934 6.10088 4.81934 6.17788V8.67788Z" fill="#23252C"/>
</svg>
