<svg width="24" height="24" viewBox="0 0 24 24" fill="none" xmlns="http://www.w3.org/2000/svg">
<path d="M7.40514 20.7739V19.2739H10.9629V15.8469C10.1142 15.6764 9.36422 15.3194 8.71289 14.7759C8.06156 14.2323 7.59872 13.5547 7.32439 12.7432C6.17056 12.606 5.19689 12.1163 4.40339 11.2739C3.60972 10.4316 3.21289 9.43159 3.21289 8.27393V7.27393C3.21289 6.86493 3.36064 6.51268 3.65614 6.21718C3.95164 5.92168 4.30389 5.77393 4.71289 5.77393H7.03989V3.77393H16.3859V5.77393H18.7129C19.1219 5.77393 19.4741 5.92168 19.7696 6.21718C20.0651 6.51268 20.2129 6.86493 20.2129 7.27393V8.27393C20.2129 9.43159 19.8161 10.4316 19.0224 11.2739C18.2289 12.1163 17.2552 12.606 16.1014 12.7432C15.8271 13.5547 15.3642 14.2323 14.7129 14.7759C14.0616 15.3194 13.3116 15.6764 12.4629 15.8469V19.2739H16.0206V20.7739H7.40514ZM7.03989 11.1317V7.27393H4.71289V8.27393C4.71289 8.97143 4.93147 9.58393 5.36864 10.1114C5.80581 10.6389 6.36289 10.979 7.03989 11.1317ZM11.7129 14.4087C12.5911 14.4087 13.3362 14.1025 13.9484 13.4902C14.5606 12.878 14.8666 12.1328 14.8666 11.2547V5.27393H8.55914V11.2547C8.55914 12.1328 8.86522 12.878 9.47739 13.4902C10.0896 14.1025 10.8347 14.4087 11.7129 14.4087ZM16.3859 11.1317C17.0629 10.979 17.62 10.6389 18.0571 10.1114C18.4943 9.58393 18.7129 8.97143 18.7129 8.27393V7.27393H16.3859V11.1317Z" fill="#23252C"/>
</svg>
